<svg width="17" height="23" viewBox="0 0 17 23" fill="none" xmlns="http://www.w3.org/2000/svg">
<path d="M8.49112 0.0200881C8.07477 0.0633571 7.66703 0.171738 7.27216 0.33206C6.87767 0.492446 6.49551 0.704154 6.12648 0.956896L6.104 0.972423L6.12627 0.957582C5.01952 1.71731 4.006 2.85183 3.1121 4.2511C2.22022 5.65259 1.4522 7.32772 0.890057 9.18575C0.461697 10.6016 0.191864 11.9949 0.0719587 13.3134C-0.0479153 14.632 -0.0179201 15.8758 0.161209 16.9951L0.161347 16.9959C0.342248 18.1146 0.670745 19.1188 1.19103 19.9483C1.45192 20.3626 1.76316 20.7345 2.13149 21.0404C2.50009 21.3467 2.92552 21.5842 3.39446 21.7264L7.07791 22.8466C7.54706 22.9896 8.03272 23.0291 8.50895 22.9797C8.92529 22.9364 9.33269 22.8279 9.72754 22.6676C10.1225 22.507 10.5042 22.2955 10.8732 22.0429L10.8738 22.0423C11.9798 21.2823 12.9946 20.1486 13.8878 18.7491L13.8921 18.7414C14.7821 17.3412 15.5488 15.6692 16.1104 13.8142C16.5383 12.3986 16.8082 11.0049 16.9282 9.68639C17.048 8.36783 17.0177 7.12394 16.8389 6.00473L16.8384 6.00384C16.6574 4.88518 16.3285 3.88116 15.809 3.05157L15.8085 3.051C15.5483 2.63687 15.2372 2.26587 14.8685 1.95986C14.4997 1.65388 14.0741 1.41588 13.6049 1.2732L9.92146 0.153081C9.45257 0.0104961 8.96723 -0.028966 8.49112 0.0200881ZM9.72645 21.0162C9.5869 21.0976 9.44784 21.1709 9.3112 21.2324C8.98557 21.3776 8.67079 21.4651 8.37111 21.4963C8.07075 21.5272 7.78549 21.5018 7.51015 21.4181L5.84031 20.9103C6.17187 20.7724 6.50053 20.5904 6.82351 20.3698C6.90037 20.3164 6.97713 20.2611 7.05414 20.2036L9.72645 21.0162ZM11.6355 19.3381C11.5315 19.4618 11.4267 19.5829 11.3202 19.6972C11.0731 19.9638 10.8233 20.2024 10.5741 20.4136L7.79927 19.5698C8.1394 19.245 8.47207 18.8783 8.79408 18.4741L11.6355 19.3381ZM13.201 17.0173C12.8696 17.6251 12.5163 18.1826 12.1491 18.6839L12.1632 18.6375L9.31577 17.7716C9.42915 17.6091 9.5408 17.4409 9.65106 17.2684C9.87831 16.9113 10.0973 16.5327 10.3078 16.1375L13.201 17.0173ZM14.581 13.7796C14.2933 14.6665 13.9537 15.4999 13.5794 16.2716L10.682 15.3905C11.0528 14.6127 11.3849 13.777 11.6705 12.8946L14.581 13.7796ZM15.3801 10.2573C15.2639 11.1389 15.0808 12.056 14.8175 12.9904L11.9108 12.1065C12.1724 11.1779 12.3633 10.2619 12.4869 9.37745L15.3801 10.2573ZM15.5132 7.50079C15.5283 7.80896 15.5329 8.12648 15.526 8.45356C15.5195 8.76927 15.5004 9.09453 15.4731 9.42519L12.5835 8.54647C12.6454 7.88385 12.6669 7.24238 12.6505 6.63026L15.5132 7.50079ZM15.1276 5.12459C15.2664 5.57413 15.3704 6.07451 15.4382 6.61769L12.5983 5.75407C12.574 5.49506 12.5432 5.24146 12.504 4.99637C12.464 4.75105 12.4163 4.51359 12.362 4.28358L15.1276 5.12459ZM13.1727 2.70165C13.448 2.78538 13.6994 2.92311 13.9318 3.11649C14.2327 3.36528 14.5023 3.7111 14.7303 4.14339L12.11 3.34657L12.0958 3.39338C11.9491 2.99175 11.7749 2.62224 11.5684 2.29321C11.5472 2.25966 11.5253 2.22705 11.5036 2.19412L13.1727 2.70165ZM10.2477 1.99618C10.6538 2.33199 11.003 2.84322 11.2688 3.50597C11.6682 4.49842 11.8739 5.82433 11.8419 7.33319C11.8111 8.84199 11.545 10.5337 11.0208 12.2664C10.2232 14.9065 8.97526 17.1344 7.63601 18.5768C6.96768 19.2984 6.2784 19.8218 5.62675 20.112C5.30143 20.2572 4.98666 20.3448 4.68702 20.376C4.38661 20.4069 4.10172 20.3816 3.82674 20.298C3.55176 20.2143 3.30083 20.0767 3.06819 19.8837C2.66196 19.547 2.31253 19.0365 2.04756 18.3736C1.64788 17.3807 1.4418 16.055 1.47379 14.5462C1.50498 13.0374 1.77148 11.3455 2.2956 9.61312C3.09282 6.97289 4.34102 4.74552 5.67992 3.30295C6.34805 2.58092 7.03815 2.05745 7.68883 1.76771C8.01424 1.62211 8.32901 1.53457 8.6289 1.50386C8.92942 1.47255 9.21427 1.49787 9.4893 1.5815C9.76432 1.66513 10.0152 1.80277 10.2477 1.99618Z" fill="#F4F1EB"/>
<path fill-rule="evenodd" clip-rule="evenodd" d="M11.2688 3.50597C11.003 2.84322 10.6538 2.33199 10.2477 1.99618C10.0152 1.80277 9.76432 1.66513 9.4893 1.5815C9.21427 1.49787 8.92942 1.47255 8.6289 1.50386C8.32901 1.53457 8.01424 1.62211 7.68883 1.76771C7.03815 2.05745 6.34805 2.58092 5.67992 3.30295C4.34102 4.74552 3.09282 6.97289 2.2956 9.61312C1.77148 11.3455 1.50498 13.0374 1.47379 14.5462C1.4418 16.055 1.64788 17.3807 2.04756 18.3736C2.31253 19.0365 2.66196 19.547 3.06819 19.8837C3.30083 20.0767 3.55176 20.2143 3.82674 20.298C4.10172 20.3816 4.38661 20.4069 4.68702 20.376C4.98666 20.3448 5.30143 20.2572 5.62675 20.112C6.2784 19.8218 6.96768 19.2984 7.63601 18.5768C8.97526 17.1344 10.2232 14.9065 11.0208 12.2664C11.545 10.5337 11.8111 8.84199 11.8419 7.33319C11.8739 5.82433 11.6682 4.49842 11.2688 3.50597ZM5.93025 5.34838C6.43052 4.80768 6.95403 4.40498 7.4776 4.17098C7.73915 4.05348 8.00099 3.9798 8.2591 3.95321C8.46794 3.93181 8.65288 4.08554 8.67243 4.29715C8.69202 4.50878 8.53897 4.69736 8.33007 4.71879C8.16275 4.73595 7.97849 4.78605 7.77935 4.87495C7.38239 5.05111 6.9278 5.38985 6.48224 5.87247L6.48155 5.87345C5.5875 6.83314 4.72629 8.35837 4.17783 10.1699L4.17196 10.1893C3.81023 11.3836 3.62743 12.5493 3.60685 13.578C3.58412 14.606 3.72848 15.5 3.98529 16.1349L3.98569 16.1362C4.15499 16.5616 4.37263 16.8681 4.59803 17.0542C4.72806 17.1617 4.8588 17.2322 5.00504 17.2771C5.20529 17.3379 5.31804 17.5523 5.25637 17.7561C5.19472 17.9599 4.98218 18.0754 4.78193 18.0145C4.53838 17.9408 4.31348 17.817 4.11482 17.6512C3.76437 17.3602 3.48715 16.9437 3.28133 16.4293L3.28173 16.4306C2.97297 15.6603 2.82487 14.6764 2.84758 13.5677C2.87029 12.4591 3.06547 11.2279 3.44614 9.96856L3.44745 9.96307C4.02865 8.04594 4.93101 6.42549 5.93047 5.34765L5.93025 5.34838Z" fill="#CCAF7E"/>
</svg>
