<svg width="26" height="26" viewBox="0 0 26 26" fill="none" xmlns="http://www.w3.org/2000/svg">
<path d="M5.41711 20.3335V19.2502H7.1667V10.6647C7.1667 9.24919 7.61448 8.00444 8.51003 6.93049C9.40703 5.85727 10.5427 5.1885 11.9171 4.92416V4.33266C11.9171 4.0315 12.0222 3.77583 12.2324 3.56566C12.4425 3.35477 12.6978 3.24933 12.9983 3.24933C13.298 3.24933 13.554 3.35477 13.7664 3.56566C13.978 3.77583 14.0838 4.0315 14.0838 4.33266V4.92416C15.4589 5.1885 16.5942 5.85763 17.4898 6.93158C18.3853 8.00625 18.8331 9.25099 18.8331 10.6658V19.2491H20.5838V20.3324L5.41711 20.3335ZM12.9972 23.1664C12.5148 23.1664 12.1031 22.9949 11.7622 22.6518C11.4213 22.3095 11.2509 21.8978 11.2509 21.4168H14.75C14.75 21.9007 14.5785 22.3135 14.2354 22.6551C13.8917 22.996 13.4789 23.1664 12.9972 23.1664ZM8.25003 19.2491H17.7509V10.6658C17.7509 9.34922 17.2883 8.22833 16.3631 7.30316C15.4387 6.37872 14.3178 5.9165 13.0004 5.9165C11.6831 5.9165 10.5622 6.37872 9.63778 7.30316C8.71334 8.22833 8.25111 9.34922 8.25111 10.6658L8.25003 19.2491Z" fill="#141414" stroke="#141414" stroke-width="0.5"/>
</svg>
