<svg width="20" height="20" viewBox="0 0 20 20" fill="none" xmlns="http://www.w3.org/2000/svg">
<path d="M10 14.875C10.1538 14.875 10.2828 14.823 10.3868 14.719C10.49 14.6157 10.5417 14.4872 10.5417 14.3333V9.45833C10.5417 9.3045 10.4897 9.17595 10.3857 9.07267C10.2817 8.96867 10.1531 8.91667 10 8.91667C9.84689 8.91667 9.71833 8.96867 9.61433 9.07267C9.51106 9.17667 9.45942 9.30522 9.45942 9.45833V14.3333C9.45942 14.4872 9.51142 14.6157 9.61542 14.719C9.71942 14.823 9.84833 14.875 10.0022 14.875M10 7.37508C10.1892 7.37508 10.3474 7.31117 10.4745 7.18333C10.6023 7.0555 10.6663 6.89733 10.6663 6.70883C10.6663 6.51961 10.6023 6.36108 10.4745 6.23325C10.3474 6.10542 10.1892 6.0415 10 6.0415C9.81078 6.0415 9.65261 6.10542 9.5255 6.23325C9.39767 6.36108 9.33375 6.51961 9.33375 6.70883C9.33375 6.89733 9.39767 7.0555 9.5255 7.18333C9.65261 7.31117 9.81078 7.37508 10 7.37508ZM10.0033 19.75C8.65558 19.75 7.38808 19.4943 6.20075 18.983C5.01414 18.4709 3.98172 17.7762 3.1035 16.8987C2.22528 16.0219 1.53014 14.9906 1.01808 13.8047C0.506028 12.6188 0.25 11.3516 0.25 10.0033C0.25 8.65558 0.505667 7.38808 1.017 6.20075C1.52906 5.01414 2.22383 3.98172 3.10133 3.1035C3.97811 2.22528 5.00944 1.53014 6.19533 1.01808C7.38122 0.506028 8.64836 0.25 9.99675 0.25C11.3444 0.25 12.6119 0.505667 13.7993 1.017C14.9859 1.52906 16.0183 2.22383 16.8965 3.10133C17.7747 3.97811 18.4699 5.00944 18.9819 6.19533C19.494 7.38122 19.75 8.64836 19.75 9.99675C19.75 11.3444 19.4943 12.6119 18.983 13.7993C18.4709 14.9859 17.7762 16.0183 16.8987 16.8965C16.0219 17.7747 14.9906 18.4699 13.8047 18.9819C12.6188 19.494 11.3516 19.75 10.0033 19.75ZM10 18.6667C12.4194 18.6667 14.4688 17.8271 16.1479 16.1479C17.8271 14.4688 18.6667 12.4194 18.6667 10C18.6667 7.58056 17.8271 5.53125 16.1479 3.85208C14.4688 2.17292 12.4194 1.33333 10 1.33333C7.58056 1.33333 5.53125 2.17292 3.85208 3.85208C2.17292 5.53125 1.33333 7.58056 1.33333 10C1.33333 12.4194 2.17292 14.4688 3.85208 16.1479C5.53125 17.8271 7.58056 18.6667 10 18.6667Z" fill="#F4F1EB"/>
</svg>
