<svg width="23" height="29" viewBox="0 0 23 29" fill="none" xmlns="http://www.w3.org/2000/svg">
<path d="M11.4193 0.0309668C10.8668 0.0851786 10.3256 0.22097 9.80154 0.421838C9.27798 0.622785 8.77077 0.888035 8.281 1.2047C6.81212 2.15656 5.46672 3.57886 4.28034 5.33202C3.09665 7.08795 2.07734 9.18671 1.33127 11.5147C0.762754 13.2886 0.404634 15.0343 0.245497 16.6862C0.0864012 18.3382 0.12621 19.8966 0.363949 21.299L0.364132 21.3C0.604222 22.7016 1.0402 23.9598 1.73072 24.999C2.07697 25.5182 2.49004 25.9841 2.97889 26.3673C3.46809 26.7511 4.03272 27.0487 4.65508 27.2269L9.54373 28.6303C10.1664 28.8095 10.8109 28.8591 11.443 28.7971C11.9956 28.7429 12.5362 28.6069 13.0603 28.4061C13.5845 28.2049 14.0911 27.9399 14.5808 27.6234L14.5816 27.6226C16.0495 26.6705 17.3963 25.2501 18.5817 23.4966L18.5874 23.487C19.7687 21.7326 20.7862 19.6378 21.5316 17.3136C22.0995 15.54 22.4577 13.7939 22.6169 12.1419C22.776 10.4899 22.7357 8.9314 22.4984 7.52914L22.4977 7.52802C22.2576 6.12645 21.8211 4.86852 21.1316 3.82912L21.1308 3.8284C20.7855 3.30954 20.3727 2.84472 19.8833 2.46131C19.3939 2.07795 18.829 1.77976 18.2063 1.60099L13.3177 0.197594C12.6954 0.018949 12.0512 -0.0304932 11.4193 0.0309668ZM13.0588 26.3371C12.8736 26.4391 12.6891 26.5309 12.5077 26.6079C12.0756 26.7898 11.6578 26.8995 11.26 26.9385C10.8614 26.9773 10.4828 26.9454 10.1174 26.8405L7.90119 26.2043C8.34124 26.0316 8.77744 25.8036 9.20609 25.5271C9.3081 25.4603 9.40998 25.391 9.51218 25.3189L13.0588 26.3371ZM15.5925 24.2346C15.4545 24.3895 15.3154 24.5412 15.174 24.6845C14.8461 25.0185 14.5146 25.3174 14.1838 25.5821L10.5011 24.5249C10.9525 24.1179 11.394 23.6585 11.8214 23.152L15.5925 24.2346ZM17.6702 21.3268C17.2304 22.0883 16.7616 22.7868 16.2742 23.4149L16.2929 23.3568L12.5138 22.2719C12.6643 22.0683 12.8125 21.8576 12.9588 21.6415C13.2604 21.194 13.551 20.7197 13.8305 20.2245L17.6702 21.3268ZM19.5018 17.2703C19.12 18.3815 18.6693 19.4257 18.1725 20.3925L14.3271 19.2886C14.8191 18.314 15.2599 17.2671 15.639 16.1615L19.5018 17.2703ZM20.5623 12.8571C20.408 13.9617 20.1651 15.1108 19.8156 16.2816L15.9579 15.1741C16.3051 14.0106 16.5584 12.863 16.7224 11.7548L20.5623 12.8571ZM20.739 9.40356C20.7591 9.78966 20.7651 10.1875 20.756 10.5973C20.7473 10.9928 20.722 11.4004 20.6858 11.8146L16.8507 10.7137C16.9329 9.8835 16.9614 9.0798 16.9396 8.31287L20.739 9.40356ZM20.2273 6.42641C20.4114 6.98965 20.5495 7.61657 20.6395 8.29712L16.8703 7.21508C16.8381 6.89057 16.7972 6.57284 16.7452 6.26577C16.6921 5.9584 16.6288 5.66089 16.5568 5.37271L20.2273 6.42641ZM17.6327 3.3907C17.9981 3.49561 18.3317 3.66817 18.6402 3.91046C19.0395 4.22217 19.3973 4.65545 19.6999 5.19706L16.2222 4.19872L16.2034 4.25737C16.0087 3.75417 15.7776 3.29121 15.5035 2.87897C15.4753 2.83694 15.4463 2.79608 15.4174 2.75482L17.6327 3.3907ZM13.7507 2.50682C14.2896 2.92755 14.7531 3.56808 15.1059 4.39844C15.6359 5.64187 15.9089 7.30311 15.8664 9.19357C15.8256 11.0839 15.4724 13.2035 14.7767 15.3744C13.7182 18.6822 12.0619 21.4736 10.2844 23.2808C9.39743 24.1848 8.48263 24.8405 7.61776 25.2041C7.18601 25.3862 6.76824 25.4958 6.37056 25.5349C5.97187 25.5737 5.59375 25.5419 5.2288 25.4372C4.86385 25.3324 4.53082 25.16 4.22207 24.9181C3.68293 24.4963 3.21917 23.8567 2.86749 23.0261C2.33704 21.7821 2.06354 20.1212 2.10599 18.2307C2.14739 16.3404 2.50108 14.2206 3.19669 12.0501C4.25476 8.74216 5.91136 5.95147 7.68833 4.14408C8.57507 3.23944 9.49096 2.58359 10.3545 2.22056C10.7864 2.03814 11.2042 1.92847 11.6022 1.88999C12.001 1.85075 12.3791 1.88248 12.7441 1.98726C13.1091 2.09205 13.4421 2.2645 13.7507 2.50682Z" fill="#141414"/>
<path d="M13.7507 2.50682C14.2896 2.92755 14.7531 3.56808 15.1059 4.39844C15.6359 5.64187 15.9089 7.30311 15.8664 9.19357C15.8256 11.0839 15.4724 13.2035 14.7767 15.3744C13.7182 18.6822 12.0619 21.4736 10.2844 23.2808C9.39743 24.1848 8.48263 24.8405 7.61776 25.2041C7.18601 25.3862 6.76824 25.4958 6.37056 25.5349C5.97187 25.5737 5.59375 25.5419 5.2288 25.4372C4.86385 25.3324 4.53082 25.16 4.22207 24.9181C3.68293 24.4963 3.21917 23.8567 2.86749 23.0261C2.33704 21.7821 2.06354 20.1212 2.10599 18.2307C2.14739 16.3404 2.50108 14.2206 3.19669 12.0501C4.25476 8.74216 5.91136 5.95147 7.68833 4.14408C8.57507 3.23944 9.49096 2.58359 10.3545 2.22056C10.7864 2.03814 11.2042 1.92847 11.6022 1.88999C12.001 1.85075 12.3791 1.88248 12.7441 1.98726C13.1091 2.09205 13.4421 2.2645 13.7507 2.50682Z" fill="#CCAF7E"/>
<path d="M10.0745 5.23184C9.3796 5.52502 8.68479 6.02956 8.02084 6.70701C6.69436 8.05744 5.49706 10.0868 4.72569 12.4888L4.72395 12.4957C4.21873 14.0735 3.9597 15.616 3.92955 17.005C3.89941 18.394 4.09597 19.6269 4.50575 20.5919L4.50522 20.5903C4.77838 21.2348 5.14631 21.7567 5.61142 22.1212C5.87508 22.329 6.17356 22.4841 6.4968 22.5764C6.76257 22.6527 7.04465 22.508 7.12648 22.2527C7.20833 21.9973 7.05868 21.7288 6.79291 21.6525C6.59882 21.5963 6.42531 21.508 6.25273 21.3733C5.95358 21.1401 5.66473 20.7561 5.44004 20.2231L5.4395 20.2215C5.09867 19.4261 4.90708 18.3059 4.93725 17.0179C4.96456 15.7291 5.20717 14.2685 5.68725 12.7722L5.69505 12.7478C6.42295 10.4782 7.56595 8.56727 8.75252 7.36488L8.75344 7.36364C9.34477 6.75897 9.94811 6.33456 10.4749 6.11385C10.7392 6.00246 10.9838 5.9397 11.2059 5.9182C11.4831 5.89134 11.6862 5.65507 11.6602 5.38992C11.6343 5.12479 11.3888 4.93218 11.1117 4.959C10.7691 4.99232 10.4216 5.08463 10.0745 5.23184Z" fill="#141414"/>
</svg>
