<svg width="328" height="238" viewBox="0 0 328 238" fill="none" xmlns="http://www.w3.org/2000/svg">
<rect x="7" y="130" width="315" height="20" fill="#1A1A1A"/>
<g clip-path="url(#clip0_69_10916)">
<rect width="328" height="138" rx="10" fill="#1A1A1A"/>
<g opacity="0.1">
<path d="M101.905 140.993C177.397 134.911 165.588 99.9875 241.08 93.9052C316.573 87.8229 308.409 98.0471 383.902 91.9648C459.394 85.8825 449.031 102.434 524.524 96.3517C600.016 90.2694 613.453 97.2607 688.945 91.1783" stroke="#F7F7F7" stroke-width="2.0694" stroke-linecap="round"/>
<path d="M101.904 140.994C175.666 135.051 183.079 109.512 256.841 103.569C330.602 97.6262 316.778 78.9235 390.539 72.9806C464.3 67.0378 465.147 94.9862 538.908 89.0433C612.67 83.1004 617.813 96.8068 691.574 90.8639" stroke="#F7F7F7" stroke-width="2.0694" stroke-linecap="round"/>
</g>
<path d="M18.6761 21.9119V20.8182H26.3125V21.9119H23.1108V31H21.8778V21.9119H18.6761ZM30.0511 31.1591C29.3617 31.1591 28.7569 30.995 28.2365 30.6669C27.7195 30.3388 27.3151 29.8797 27.0234 29.2898C26.7351 28.6998 26.5909 28.0104 26.5909 27.2216C26.5909 26.4261 26.7351 25.7318 27.0234 25.1385C27.3151 24.5452 27.7195 24.0845 28.2365 23.7564C28.7569 23.4283 29.3617 23.2642 30.0511 23.2642C30.7405 23.2642 31.3438 23.4283 31.8608 23.7564C32.3812 24.0845 32.7855 24.5452 33.0739 25.1385C33.3655 25.7318 33.5114 26.4261 33.5114 27.2216C33.5114 28.0104 33.3655 28.6998 33.0739 29.2898C32.7855 29.8797 32.3812 30.3388 31.8608 30.6669C31.3438 30.995 30.7405 31.1591 30.0511 31.1591ZM30.0511 30.1051C30.5748 30.1051 31.0057 29.9709 31.3438 29.7024C31.6818 29.4339 31.9321 29.081 32.0945 28.6435C32.2569 28.206 32.3381 27.732 32.3381 27.2216C32.3381 26.7112 32.2569 26.2356 32.0945 25.7947C31.9321 25.3539 31.6818 24.9976 31.3438 24.7259C31.0057 24.4541 30.5748 24.3182 30.0511 24.3182C29.5275 24.3182 29.0966 24.4541 28.7585 24.7259C28.4205 24.9976 28.1702 25.3539 28.0078 25.7947C27.8454 26.2356 27.7642 26.7112 27.7642 27.2216C27.7642 27.732 27.8454 28.206 28.0078 28.6435C28.1702 29.081 28.4205 29.4339 28.7585 29.7024C29.0966 29.9709 29.5275 30.1051 30.0511 30.1051ZM38.6234 23.3636V24.358H34.666V23.3636H38.6234ZM35.8194 21.5341H36.9927V28.8125C36.9927 29.1439 37.0408 29.3925 37.1369 29.5582C37.2363 29.7206 37.3623 29.83 37.5147 29.8864C37.6705 29.9394 37.8346 29.9659 38.0069 29.9659C38.1362 29.9659 38.2422 29.9593 38.3251 29.946C38.408 29.9295 38.4743 29.9162 38.524 29.9062L38.7626 30.9602C38.6831 30.9901 38.572 31.0199 38.4295 31.0497C38.287 31.0829 38.1064 31.0994 37.8876 31.0994C37.5562 31.0994 37.2314 31.0282 36.9132 30.8857C36.5983 30.7431 36.3365 30.526 36.1277 30.2344C35.9222 29.9427 35.8194 29.5748 35.8194 29.1307V21.5341ZM42.6355 31.179C42.1516 31.179 41.7124 31.0878 41.318 30.9055C40.9236 30.7199 40.6104 30.4531 40.3784 30.1051C40.1464 29.7538 40.0304 29.3295 40.0304 28.8324C40.0304 28.3949 40.1165 28.0402 40.2889 27.7685C40.4612 27.4934 40.6916 27.2779 40.9799 27.1222C41.2683 26.9664 41.5865 26.8504 41.9345 26.7741C42.2858 26.6946 42.6388 26.6316 42.9934 26.5852C43.4574 26.5256 43.8336 26.4808 44.122 26.451C44.4136 26.4179 44.6258 26.3632 44.7583 26.2869C44.8942 26.2107 44.9622 26.0781 44.9622 25.8892V25.8494C44.9622 25.3589 44.8279 24.9777 44.5595 24.706C44.2943 24.4342 43.8916 24.2983 43.3514 24.2983C42.7913 24.2983 42.3521 24.4209 42.0339 24.6662C41.7157 24.9115 41.492 25.1733 41.3627 25.4517L40.2491 25.054C40.448 24.59 40.7131 24.2287 41.0446 23.9702C41.3793 23.7083 41.7439 23.526 42.1383 23.4233C42.536 23.3172 42.9271 23.2642 43.3116 23.2642C43.5569 23.2642 43.8386 23.294 44.1568 23.3537C44.4783 23.41 44.7882 23.5277 45.0865 23.7067C45.3881 23.8857 45.6383 24.1558 45.8372 24.517C46.036 24.8783 46.1355 25.3622 46.1355 25.9688V31H44.9622V29.9659H44.9025C44.823 30.1316 44.6904 30.3089 44.5048 30.4979C44.3192 30.6868 44.0723 30.8475 43.764 30.9801C43.4558 31.1127 43.0796 31.179 42.6355 31.179ZM42.8145 30.125C43.2785 30.125 43.6696 30.0339 43.9877 29.8516C44.3092 29.6693 44.5512 29.4339 44.7136 29.1456C44.8793 28.8572 44.9622 28.554 44.9622 28.2358V27.1619C44.9125 27.2216 44.8031 27.2763 44.6341 27.326C44.4683 27.3724 44.2761 27.4138 44.0574 27.4503C43.8419 27.4834 43.6315 27.5133 43.426 27.5398C43.2238 27.563 43.0597 27.5829 42.9338 27.5994C42.6288 27.6392 42.3438 27.7038 42.0787 27.7933C41.8168 27.8795 41.6047 28.0104 41.4423 28.1861C41.2832 28.3584 41.2037 28.5937 41.2037 28.892C41.2037 29.2997 41.3545 29.608 41.6561 29.8168C41.961 30.0223 42.3471 30.125 42.8145 30.125ZM49.4503 20.8182V31H48.277V20.8182H49.4503ZM55.6958 31V20.8182L59.2555 20.8182C59.9648 20.8182 60.5498 20.9408 61.0105 21.1861C61.4712 21.428 61.8142 21.7545 62.0396 22.1655C62.265 22.5732 62.3777 23.0256 62.3777 23.5227C62.3777 23.9602 62.2998 24.3215 62.144 24.6065C61.9915 24.8916 61.7894 25.117 61.5375 25.2827C61.2889 25.4484 61.0188 25.571 60.7271 25.6506V25.75C61.0386 25.7699 61.3519 25.8793 61.6667 26.0781C61.9816 26.277 62.2451 26.562 62.4572 26.9332C62.6693 27.3045 62.7754 27.7585 62.7754 28.2955C62.7754 28.8059 62.6594 29.2649 62.4274 29.6726C62.1954 30.0803 61.8291 30.4034 61.3287 30.642C60.8282 30.8807 60.1769 31 59.3748 31H55.6958ZM56.9288 29.9062H59.3748C60.1802 29.9062 60.752 29.7505 61.09 29.4389C61.4314 29.1241 61.6021 28.7429 61.6021 28.2955C61.6021 27.9508 61.5143 27.6326 61.3386 27.3409C61.1629 27.0459 60.9127 26.8106 60.5879 26.6349C60.2631 26.456 59.8786 26.3665 59.4345 26.3665H56.9288V29.9062ZM56.9288 25.2926H59.2157C59.5869 25.2926 59.9217 25.2197 60.22 25.0739C60.5216 24.928 60.7602 24.7225 60.9359 24.4574C61.1149 24.1922 61.2044 23.8807 61.2044 23.5227C61.2044 23.0753 61.0486 22.6958 60.737 22.3842C60.4255 22.0694 59.9316 21.9119 59.2555 21.9119L56.9288 21.9119V25.2926ZM66.8894 31.179C66.4055 31.179 65.9663 31.0878 65.5719 30.9055C65.1775 30.7199 64.8643 30.4531 64.6323 30.1051C64.4003 29.7538 64.2843 29.3295 64.2843 28.8324C64.2843 28.3949 64.3704 28.0402 64.5428 27.7685C64.7151 27.4934 64.9455 27.2779 65.2338 27.1222C65.5222 26.9664 65.8404 26.8504 66.1884 26.7741C66.5397 26.6946 66.8927 26.6316 67.2473 26.5852C67.7114 26.5256 68.0875 26.4808 68.3759 26.451C68.6676 26.4179 68.8797 26.3632 69.0123 26.2869C69.1481 26.2107 69.2161 26.0781 69.2161 25.8892V25.8494C69.2161 25.3589 69.0819 24.9777 68.8134 24.706C68.5482 24.4342 68.1455 24.2983 67.6053 24.2983C67.0452 24.2983 66.606 24.4209 66.2878 24.6662C65.9696 24.9115 65.7459 25.1733 65.6167 25.4517L64.503 25.054C64.7019 24.59 64.967 24.2287 65.2985 23.9702C65.6332 23.7083 65.9978 23.526 66.3922 23.4233C66.79 23.3172 67.181 23.2642 67.5655 23.2642C67.8108 23.2642 68.0925 23.294 68.4107 23.3537C68.7322 23.41 69.0421 23.5277 69.3404 23.7067C69.642 23.8857 69.8922 24.1558 70.0911 24.517C70.29 24.8783 70.3894 25.3622 70.3894 25.9687V31H69.2161V29.9659H69.1564C69.0769 30.1316 68.9443 30.3089 68.7587 30.4979C68.5731 30.6868 68.3262 30.8475 68.0179 30.9801C67.7097 31.1127 67.3335 31.179 66.8894 31.179ZM67.0684 30.125C67.5324 30.125 67.9235 30.0339 68.2417 29.8516C68.5632 29.6693 68.8051 29.4339 68.9675 29.1456C69.1332 28.8572 69.2161 28.554 69.2161 28.2358V27.1619C69.1664 27.2216 69.057 27.2763 68.888 27.326C68.7222 27.3724 68.53 27.4138 68.3113 27.4503C68.0958 27.4834 67.8854 27.5133 67.6799 27.5398C67.4777 27.563 67.3136 27.5829 67.1877 27.5994C66.8828 27.6392 66.5977 27.7038 66.3326 27.7933C66.0707 27.8795 65.8586 28.0104 65.6962 28.1861C65.5371 28.3584 65.4576 28.5937 65.4576 28.892C65.4576 29.2997 65.6084 29.608 65.91 29.8168C66.2149 30.0223 66.601 30.125 67.0684 30.125ZM73.7042 20.8182V31H72.5309V20.8182H73.7042ZM78.1003 31.179C77.6164 31.179 77.1773 31.0878 76.7828 30.9055C76.3884 30.7199 76.0752 30.4531 75.8432 30.1051C75.6112 29.7538 75.4952 29.3295 75.4952 28.8324C75.4952 28.3949 75.5814 28.0402 75.7537 27.7685C75.9261 27.4934 76.1564 27.2779 76.4448 27.1222C76.7331 26.9664 77.0513 26.8504 77.3993 26.7741C77.7507 26.6946 78.1036 26.6316 78.4583 26.5852C78.9223 26.5256 79.2985 26.4808 79.5868 26.451C79.8785 26.4179 80.0906 26.3632 80.2232 26.2869C80.3591 26.2107 80.427 26.0781 80.427 25.8892V25.8494C80.427 25.3589 80.2928 24.9777 80.0243 24.706C79.7592 24.4342 79.3565 24.2983 78.8162 24.2983C78.2561 24.2983 77.8169 24.4209 77.4988 24.6662C77.1806 24.9115 76.9569 25.1733 76.8276 25.4517L75.714 25.054C75.9128 24.59 76.178 24.2287 76.5094 23.9702C76.8442 23.7083 77.2087 23.526 77.6032 23.4233C78.0009 23.3172 78.392 23.2642 78.7765 23.2642C79.0217 23.2642 79.3034 23.294 79.6216 23.3537C79.9431 23.41 80.253 23.5277 80.5513 23.7067C80.8529 23.8857 81.1032 24.1558 81.302 24.517C81.5009 24.8783 81.6003 25.3622 81.6003 25.9687V31H80.427V29.9659H80.3674C80.2878 30.1316 80.1552 30.3089 79.9696 30.4979C79.784 30.6868 79.5371 30.8475 79.2289 30.9801C78.9206 31.1127 78.5444 31.179 78.1003 31.179ZM78.2793 30.125C78.7433 30.125 79.1344 30.0339 79.4526 29.8516C79.7741 29.6693 80.016 29.4339 80.1784 29.1456C80.3442 28.8572 80.427 28.554 80.427 28.2358V27.1619C80.3773 27.2216 80.2679 27.2763 80.0989 27.326C79.9332 27.3724 79.7409 27.4138 79.5222 27.4503C79.3068 27.4834 79.0963 27.5133 78.8908 27.5398C78.6886 27.563 78.5246 27.5829 78.3986 27.5994C78.0937 27.6392 77.8087 27.7038 77.5435 27.7933C77.2817 27.8795 77.0695 28.0104 76.9071 28.1861C76.748 28.3584 76.6685 28.5937 76.6685 28.892C76.6685 29.2997 76.8193 29.608 77.1209 29.8168C77.4258 30.0223 77.812 30.125 78.2793 30.125ZM84.9151 26.4062V31H83.7418V23.3636H84.8754V24.5568H84.9748C85.1538 24.169 85.4255 23.8575 85.7901 23.6222C86.1547 23.3835 86.6254 23.2642 87.2021 23.2642C87.7191 23.2642 88.1715 23.3703 88.5593 23.5824C88.9471 23.7912 89.2487 24.1094 89.4641 24.5369C89.6796 24.9612 89.7873 25.4981 89.7873 26.1477V31H88.614V26.2273C88.614 25.6274 88.4582 25.16 88.1467 24.8253C87.8351 24.4872 87.4076 24.3182 86.864 24.3182C86.4895 24.3182 86.1547 24.3994 85.8597 24.5618C85.5681 24.7242 85.3377 24.9612 85.1687 25.2727C84.9996 25.5843 84.9151 25.9621 84.9151 26.4062ZM95.0336 31.1591C94.3176 31.1591 93.7012 30.9901 93.1841 30.652C92.6671 30.3139 92.2694 29.8482 91.9909 29.255C91.7125 28.6617 91.5733 27.9839 91.5733 27.2216C91.5733 26.446 91.7158 25.7616 92.0009 25.1683C92.2892 24.5717 92.6903 24.1061 93.204 23.7713C93.7211 23.4332 94.3243 23.2642 95.0137 23.2642C95.5506 23.2642 96.0345 23.3636 96.4654 23.5625C96.8962 23.7614 97.2492 24.0398 97.5243 24.3977C97.7994 24.7557 97.9701 25.1733 98.0364 25.6506L96.8631 25.6506C96.7736 25.3026 96.5748 24.9943 96.2665 24.7259C95.9616 24.4541 95.5506 24.3182 95.0336 24.3182C94.5762 24.3182 94.1751 24.4375 93.8304 24.6761C93.4891 24.9115 93.2222 25.2446 93.03 25.6754C92.8411 26.103 92.7466 26.6051 92.7466 27.1818C92.7466 27.7718 92.8394 28.2855 93.025 28.723C93.214 29.1605 93.4791 29.5002 93.8205 29.7422C94.1652 29.9841 94.5695 30.1051 95.0336 30.1051C95.3385 30.1051 95.6152 30.0521 95.8638 29.946C96.1124 29.84 96.3229 29.6875 96.4952 29.4886C96.6676 29.2898 96.7902 29.0511 96.8631 28.7727L98.0364 28.7727C97.9701 29.2235 97.806 29.6295 97.5442 29.9908C97.2857 30.3487 96.9426 30.6338 96.5151 30.8459C96.0909 31.0547 95.597 31.1591 95.0336 31.1591ZM102.953 31.1591C102.218 31.1591 101.583 30.9967 101.049 30.6719C100.519 30.3437 100.11 29.8864 99.8212 29.2997C99.5362 28.7098 99.3936 28.0237 99.3936 27.2415C99.3936 26.4593 99.5362 25.7699 99.8212 25.1733C100.11 24.5734 100.511 24.1061 101.024 23.7713C101.541 23.4332 102.145 23.2642 102.834 23.2642C103.232 23.2642 103.624 23.3305 104.012 23.4631C104.4 23.5956 104.753 23.8111 105.071 24.1094C105.389 24.4044 105.643 24.7955 105.832 25.2827C106.021 25.7699 106.115 26.3698 106.115 27.0824V27.5795H100.229V26.5653H104.922C104.922 26.1345 104.836 25.75 104.664 25.4119C104.494 25.0739 104.253 24.8071 103.938 24.6115C103.626 24.416 103.258 24.3182 102.834 24.3182C102.367 24.3182 101.962 24.4342 101.621 24.6662C101.283 24.8949 101.023 25.1932 100.84 25.5611C100.658 25.929 100.567 26.3234 100.567 26.7443V27.4205C100.567 27.9972 100.666 28.486 100.865 28.8871C101.067 29.2848 101.347 29.5881 101.705 29.7969C102.063 30.0024 102.479 30.1051 102.953 30.1051C103.262 30.1051 103.54 30.062 103.789 29.9759C104.04 29.8864 104.258 29.7538 104.44 29.5781C104.622 29.3991 104.763 29.1771 104.862 28.9119L105.996 29.2301C105.877 29.6146 105.676 29.9527 105.394 30.2443C105.113 30.5327 104.765 30.758 104.35 30.9205C103.936 31.0795 103.47 31.1591 102.953 31.1591Z" fill="#F7F7F7"/>
<path d="M19.7614 68V53.4545H28.483V55.017H21.5227V59.9318H27.8295V61.4943H21.5227V68H19.7614ZM17.517 65.2443V63.9375H23.767V65.2443H17.517ZM35.0065 68V64.9545L43.086 57.0341C43.8587 56.2538 44.5027 55.5606 45.0178 54.9545C45.533 54.3485 45.9193 53.7614 46.1769 53.1932C46.4345 52.625 46.5633 52.0189 46.5633 51.375C46.5633 50.6402 46.3966 50.0114 46.0633 49.4886C45.7299 48.9583 45.2716 48.5492 44.6883 48.2614C44.1049 47.9735 43.4421 47.8295 42.6996 47.8295C41.9345 47.8295 41.264 47.9886 40.6883 48.3068C40.1125 48.6174 39.6656 49.0606 39.3474 49.6364C39.0368 50.2121 38.8815 50.8977 38.8815 51.6932H34.8701C34.8701 50.2159 35.2072 48.9318 35.8815 47.8409C36.5557 46.75 37.4837 45.9053 38.6656 45.3068C39.8549 44.7083 41.2186 44.4091 42.7565 44.4091C44.3171 44.4091 45.6883 44.7008 46.8701 45.2841C48.0519 45.8674 48.9686 46.6667 49.6201 47.6818C50.2792 48.697 50.6087 49.8561 50.6087 51.1591C50.6087 52.0303 50.4421 52.8864 50.1087 53.7273C49.7754 54.5682 49.1883 55.5 48.3474 56.5227C47.514 57.5455 46.3436 58.7841 44.836 60.2386L40.8246 64.3182V64.4773H50.961V68H35.0065ZM62.9724 68.3182C61.4572 68.3182 60.1012 68.0341 58.9042 67.4659C57.7072 66.8902 56.7565 66.1023 56.0519 65.1023C55.3549 64.1023 54.9837 62.9583 54.9383 61.6705H59.0292C59.1049 62.625 59.5178 63.4053 60.2678 64.0114C61.0178 64.6098 61.9193 64.9091 62.9724 64.9091C63.7981 64.9091 64.533 64.7197 65.1769 64.3409C65.8209 63.9621 66.3284 63.4356 66.6996 62.7614C67.0709 62.0871 67.2527 61.3182 67.2451 60.4545C67.2527 59.5758 67.0671 58.7955 66.6883 58.1136C66.3095 57.4318 65.7906 56.8977 65.1315 56.5114C64.4724 56.1174 63.7148 55.9205 62.8587 55.9205C62.1618 55.9129 61.4762 56.0417 60.8019 56.3068C60.1277 56.572 59.5936 56.9205 59.1996 57.3523L55.3928 56.7273L56.6087 44.7273H70.1087V48.25H60.0974L59.4269 54.4205H59.5633C59.9951 53.9129 60.6049 53.4924 61.3928 53.1591C62.1807 52.8182 63.0443 52.6477 63.9837 52.6477C65.3928 52.6477 66.6504 52.9811 67.7565 53.6477C68.8625 54.3068 69.7337 55.2159 70.3701 56.375C71.0065 57.5341 71.3246 58.8598 71.3246 60.3523C71.3246 61.8902 70.9686 63.2614 70.2565 64.4659C69.5519 65.6629 68.5709 66.6061 67.3133 67.2955C66.0633 67.9773 64.6163 68.3182 62.9724 68.3182ZM79.2252 64.8182L79.0775 66.0682C78.9714 67.0227 78.782 67.9924 78.5093 68.9773C78.2442 69.9697 77.9639 70.8826 77.6684 71.7159C77.3729 72.5492 77.1343 73.2045 76.9525 73.6818H74.1798C74.2858 73.2197 74.4298 72.5909 74.6116 71.7955C74.801 71 74.9828 70.1061 75.157 69.1136C75.3313 68.1212 75.4487 67.1136 75.5093 66.0909L75.5889 64.8182H79.2252ZM91.4837 68.4432C89.6125 68.4432 88.0065 67.9697 86.6656 67.0227C85.3322 66.0682 84.3057 64.6932 83.586 62.8977C82.8739 61.0947 82.5178 58.9242 82.5178 56.3864C82.5254 53.8485 82.8853 51.6894 83.5974 49.9091C84.3171 48.1212 85.3436 46.7576 86.6769 45.8182C88.0178 44.8788 89.6201 44.4091 91.4837 44.4091C93.3474 44.4091 94.9496 44.8788 96.2906 45.8182C97.6315 46.7576 98.658 48.1212 99.3701 49.9091C100.09 51.697 100.45 53.8561 100.45 56.3864C100.45 58.9318 100.09 61.1061 99.3701 62.9091C98.658 64.7045 97.6315 66.0758 96.2906 67.0227C94.9572 67.9697 93.3549 68.4432 91.4837 68.4432ZM91.4837 64.8864C92.9383 64.8864 94.086 64.1705 94.9269 62.7386C95.7754 61.2992 96.1996 59.1818 96.1996 56.3864C96.1996 54.5379 96.0065 52.9848 95.6201 51.7273C95.2337 50.4697 94.6883 49.5227 93.9837 48.8864C93.2792 48.2424 92.4459 47.9205 91.4837 47.9205C90.0368 47.9205 88.8928 48.6402 88.0519 50.0795C87.211 51.5114 86.7868 53.6136 86.7792 56.3864C86.7716 58.2424 86.9572 59.803 87.336 61.0682C87.7224 62.3333 88.2678 63.2879 88.9724 63.9318C89.6769 64.5682 90.514 64.8864 91.4837 64.8864ZM112.827 68.4432C110.956 68.4432 109.35 67.9697 108.009 67.0227C106.676 66.0682 105.649 64.6932 104.93 62.8977C104.218 61.0947 103.862 58.9242 103.862 56.3864C103.869 53.8485 104.229 51.6894 104.941 49.9091C105.661 48.1212 106.687 46.7576 108.021 45.8182C109.362 44.8788 110.964 44.4091 112.827 44.4091C114.691 44.4091 116.293 44.8788 117.634 45.8182C118.975 46.7576 120.002 48.1212 120.714 49.9091C121.434 51.697 121.793 53.8561 121.793 56.3864C121.793 58.9318 121.434 61.1061 120.714 62.9091C120.002 64.7045 118.975 66.0758 117.634 67.0227C116.301 67.9697 114.699 68.4432 112.827 68.4432ZM112.827 64.8864C114.282 64.8864 115.43 64.1705 116.271 62.7386C117.119 61.2992 117.543 59.1818 117.543 56.3864C117.543 54.5379 117.35 52.9848 116.964 51.7273C116.577 50.4697 116.032 49.5227 115.327 48.8864C114.623 48.2424 113.79 47.9205 112.827 47.9205C111.381 47.9205 110.237 48.6402 109.396 50.0795C108.555 51.5114 108.131 53.6136 108.123 56.3864C108.115 58.2424 108.301 59.803 108.68 61.0682C109.066 62.3333 109.612 63.2879 110.316 63.9318C111.021 64.5682 111.858 64.8864 112.827 64.8864ZM134.171 68.4432C132.3 68.4432 130.694 67.9697 129.353 67.0227C128.02 66.0682 126.993 64.6932 126.274 62.8977C125.561 61.0947 125.205 58.9242 125.205 56.3864C125.213 53.8485 125.573 51.6894 126.285 49.9091C127.005 48.1212 128.031 46.7576 129.364 45.8182C130.705 44.8788 132.308 44.4091 134.171 44.4091C136.035 44.4091 137.637 44.8788 138.978 45.8182C140.319 46.7576 141.345 48.1212 142.058 49.9091C142.777 51.697 143.137 53.8561 143.137 56.3864C143.137 58.9318 142.777 61.1061 142.058 62.9091C141.345 64.7045 140.319 66.0758 138.978 67.0227C137.645 67.9697 136.042 68.4432 134.171 68.4432ZM134.171 64.8864C135.626 64.8864 136.774 64.1705 137.614 62.7386C138.463 61.2992 138.887 59.1818 138.887 56.3864C138.887 54.5379 138.694 52.9848 138.308 51.7273C137.921 50.4697 137.376 49.5227 136.671 48.8864C135.967 48.2424 135.133 47.9205 134.171 47.9205C132.724 47.9205 131.58 48.6402 130.739 50.0795C129.899 51.5114 129.474 53.6136 129.467 56.3864C129.459 58.2424 129.645 59.803 130.024 61.0682C130.41 62.3333 130.955 63.2879 131.66 63.9318C132.364 64.5682 133.202 64.8864 134.171 64.8864ZM148.586 68.25C147.897 68.25 147.306 68.0076 146.813 67.5227C146.321 67.0379 146.078 66.447 146.086 65.75C146.078 65.0682 146.321 64.4848 146.813 64C147.306 63.5152 147.897 63.2727 148.586 63.2727C149.253 63.2727 149.832 63.5152 150.325 64C150.825 64.4848 151.078 65.0682 151.086 65.75C151.078 66.2121 150.957 66.6326 150.722 67.0114C150.495 67.3902 150.192 67.6932 149.813 67.9205C149.442 68.1402 149.033 68.25 148.586 68.25ZM154.867 63.6818V60.3295L164.742 44.7273H167.538V49.5H165.833L159.185 60.0341V60.2159H172.97V63.6818H154.867ZM165.97 68V62.6591L166.015 61.1591V44.7273H169.992V68H165.97ZM185.202 68.4432C183.331 68.4432 181.725 67.9697 180.384 67.0227C179.051 66.0682 178.024 64.6932 177.305 62.8977C176.593 61.0947 176.237 58.9242 176.237 56.3864C176.244 53.8485 176.604 51.6894 177.316 49.9091C178.036 48.1212 179.062 46.7576 180.396 45.8182C181.737 44.8788 183.339 44.4091 185.202 44.4091C187.066 44.4091 188.668 44.8788 190.009 45.8182C191.35 46.7576 192.377 48.1212 193.089 49.9091C193.809 51.697 194.168 53.8561 194.168 56.3864C194.168 58.9318 193.809 61.1061 193.089 62.9091C192.377 64.7045 191.35 66.0758 190.009 67.0227C188.676 67.9697 187.074 68.4432 185.202 68.4432ZM185.202 64.8864C186.657 64.8864 187.805 64.1705 188.646 62.7386C189.494 61.2992 189.918 59.1818 189.918 56.3864C189.918 54.5379 189.725 52.9848 189.339 51.7273C188.952 50.4697 188.407 49.5227 187.702 48.8864C186.998 48.2424 186.165 47.9205 185.202 47.9205C183.756 47.9205 182.612 48.6402 181.771 50.0795C180.93 51.5114 180.506 53.6136 180.498 56.3864C180.49 58.2424 180.676 59.803 181.055 61.0682C181.441 62.3333 181.987 63.2879 182.691 63.9318C183.396 64.5682 184.233 64.8864 185.202 64.8864Z" fill="#F7F7F7"/>
<path d="M19.4091 111.364H21.0909L25.0455 121.023H25.1818L29.1364 111.364H30.8182V123H29.5V114.159H29.3864L25.75 123H24.4773L20.8409 114.159H20.7273V123H19.4091V111.364ZM34.3253 126.273C34.098 126.273 33.8954 126.254 33.7173 126.216C33.5393 126.182 33.4162 126.148 33.348 126.114L33.6889 124.932C34.0147 125.015 34.3026 125.045 34.5526 125.023C34.8026 125 35.0241 124.888 35.2173 124.688C35.4143 124.491 35.5942 124.17 35.7571 123.727L36.0071 123.045L32.7798 114.273H34.2344L36.6435 121.227H36.7344L39.1435 114.273H40.598L36.8935 124.273C36.7268 124.723 36.5204 125.097 36.2741 125.392C36.0279 125.691 35.742 125.913 35.4162 126.057C35.0942 126.201 34.7306 126.273 34.3253 126.273ZM49.1634 123L45.9815 111.364H47.4134L49.8452 120.841H49.9588L52.4361 111.364H54.027L56.5043 120.841H56.6179L59.0497 111.364H60.4815L57.2997 123H55.8452L53.277 113.727H53.1861L50.6179 123H49.1634ZM63.8111 123.205C63.258 123.205 62.7562 123.1 62.3054 122.892C61.8546 122.68 61.4967 122.375 61.2315 121.977C60.9664 121.576 60.8338 121.091 60.8338 120.523C60.8338 120.023 60.9323 119.617 61.1293 119.307C61.3262 118.992 61.5895 118.746 61.919 118.568C62.2486 118.39 62.6122 118.258 63.0099 118.17C63.4115 118.08 63.8149 118.008 64.2202 117.955C64.7505 117.886 65.1804 117.835 65.5099 117.801C65.8433 117.763 66.0857 117.701 66.2372 117.614C66.3925 117.527 66.4702 117.375 66.4702 117.159V117.114C66.4702 116.553 66.3168 116.117 66.0099 115.807C65.7069 115.496 65.2467 115.341 64.6293 115.341C63.9891 115.341 63.4872 115.481 63.1236 115.761C62.7599 116.042 62.5043 116.341 62.3565 116.659L61.0838 116.205C61.3111 115.674 61.6141 115.261 61.9929 114.966C62.3755 114.667 62.7921 114.458 63.2429 114.341C63.6974 114.22 64.1444 114.159 64.5838 114.159C64.8641 114.159 65.1861 114.193 65.5497 114.261C65.9171 114.326 66.2713 114.46 66.6122 114.665C66.9569 114.869 67.2429 115.178 67.4702 115.591C67.6974 116.004 67.8111 116.557 67.8111 117.25V123H66.4702V121.818H66.402C66.3111 122.008 66.1596 122.21 65.9474 122.426C65.7353 122.642 65.4531 122.826 65.1009 122.977C64.7486 123.129 64.3187 123.205 63.8111 123.205ZM64.0156 122C64.5459 122 64.9929 121.896 65.3565 121.688C65.724 121.479 66.0005 121.21 66.1861 120.881C66.3755 120.551 66.4702 120.205 66.4702 119.841V118.614C66.4134 118.682 66.2884 118.744 66.0952 118.801C65.9058 118.854 65.6861 118.902 65.4361 118.943C65.1899 118.981 64.9493 119.015 64.7145 119.045C64.4834 119.072 64.2959 119.095 64.152 119.114C63.8035 119.159 63.4777 119.233 63.1747 119.335C62.8755 119.434 62.633 119.583 62.4474 119.784C62.2656 119.981 62.1747 120.25 62.1747 120.591C62.1747 121.057 62.3471 121.409 62.6918 121.648C63.0402 121.883 63.4815 122 64.0156 122ZM71.5994 111.364V123H70.2585V111.364H71.5994ZM75.3963 111.364V123H74.0554V111.364H75.3963ZM81.5114 123.182C80.6705 123.182 79.9451 122.996 79.3352 122.625C78.7292 122.25 78.2614 121.727 77.9318 121.057C77.6061 120.383 77.4432 119.598 77.4432 118.705C77.4432 117.811 77.6061 117.023 77.9318 116.341C78.2614 115.655 78.7197 115.121 79.3068 114.739C79.8977 114.352 80.5871 114.159 81.375 114.159C81.8295 114.159 82.2784 114.235 82.7216 114.386C83.1648 114.538 83.5682 114.784 83.9318 115.125C84.2955 115.462 84.5852 115.909 84.8011 116.466C85.017 117.023 85.125 117.708 85.125 118.523V119.091H78.3977V117.932H83.7614C83.7614 117.439 83.6629 117 83.4659 116.614C83.2727 116.227 82.9962 115.922 82.6364 115.699C82.2803 115.475 81.8598 115.364 81.375 115.364C80.8409 115.364 80.3788 115.496 79.9886 115.761C79.6023 116.023 79.3049 116.364 79.0966 116.784C78.8883 117.205 78.7841 117.655 78.7841 118.136V118.909C78.7841 119.568 78.8977 120.127 79.125 120.585C79.3561 121.04 79.6761 121.386 80.0852 121.625C80.4943 121.86 80.9697 121.977 81.5114 121.977C81.8636 121.977 82.1818 121.928 82.4659 121.83C82.7538 121.727 83.0019 121.576 83.2102 121.375C83.4186 121.17 83.5795 120.917 83.6932 120.614L84.9886 120.977C84.8523 121.417 84.6231 121.803 84.3011 122.136C83.9792 122.466 83.5814 122.723 83.108 122.909C82.6345 123.091 82.1023 123.182 81.5114 123.182ZM90.9602 114.273V115.409H86.4375V114.273H90.9602ZM87.7557 112.182H89.0966V120.5C89.0966 120.879 89.1515 121.163 89.2614 121.352C89.375 121.538 89.5189 121.663 89.6932 121.727C89.8712 121.788 90.0587 121.818 90.2557 121.818C90.4034 121.818 90.5246 121.811 90.6193 121.795C90.714 121.777 90.7898 121.761 90.8466 121.75L91.1193 122.955C91.0284 122.989 90.9015 123.023 90.7386 123.057C90.5758 123.095 90.3693 123.114 90.1193 123.114C89.7405 123.114 89.3693 123.032 89.0057 122.869C88.6458 122.706 88.3466 122.458 88.108 122.125C87.8731 121.792 87.7557 121.371 87.7557 120.864V112.182Z" fill="#F7F7F7"/>
<path d="M117.333 113L121.333 117M121.333 117L117.333 121M121.333 117H104.333" stroke="#F4F1EB" stroke-width="1.5" stroke-linecap="round" stroke-linejoin="round"/>
</g>
<g clip-path="url(#clip1_69_10916)">
<rect y="141" width="328" height="59" rx="10" fill="#1A1A1A"/>
<g opacity="0.3">
<path d="M14.3178 154.974C12.9644 155.107 11.6389 155.44 10.3553 155.932C9.07291 156.424 7.8306 157.074 6.63098 157.849L6.5579 157.897L6.63031 157.851C3.03253 160.183 -0.262143 163.664 -3.16799 167.959L-3.16835 167.96C-6.0676 172.261 -8.56388 177.4 -10.3913 183.102C-11.7837 187.447 -12.6609 191.723 -13.0507 195.769C-13.4404 199.815 -13.3429 203.632 -12.7606 207.067L-12.7601 207.07C-12.172 210.502 -11.1042 213.584 -9.41287 216.13L-9.44578 216.083L-9.41323 216.131C-8.56514 217.402 -7.55303 218.542 -6.35568 219.481C-5.15747 220.421 -3.77451 221.15 -2.25012 221.587L9.72384 225.024C11.2489 225.463 12.8277 225.584 14.3758 225.433C15.7292 225.3 17.0535 224.967 18.3371 224.475C19.621 223.982 20.8618 223.333 22.0613 222.558L22.0632 222.556C25.6586 220.224 28.9574 216.745 31.861 212.45L31.8749 212.426C34.7682 208.129 37.2604 202.998 39.0861 197.306L39.0865 197.304C40.4774 192.96 41.3545 188.685 41.7444 184.638C42.1341 180.592 42.0354 176.775 41.4541 173.34L41.4526 173.337C40.8644 169.904 39.7951 166.823 38.1064 164.277L38.1045 164.276C37.2588 163.005 36.2476 161.866 35.049 160.927L35.1221 160.986L35.0493 160.926C33.8506 159.987 32.4667 159.258 30.9414 158.82L18.9675 155.383C17.4432 154.945 15.8655 154.824 14.3178 154.974ZM18.3335 219.407C17.8799 219.657 17.4278 219.882 16.9837 220.07C15.9251 220.516 14.9019 220.785 13.9277 220.88C12.9513 220.975 12.024 220.897 11.1289 220.64L5.7007 219.082C6.77853 218.659 7.84693 218.1 8.89682 217.423C9.14669 217.259 9.39622 217.09 9.64654 216.913L18.3335 219.407ZM24.5392 214.257C24.2012 214.637 23.8606 215.008 23.5143 215.359C22.7112 216.177 21.8991 216.91 21.0889 217.558L12.0688 214.968C13.1744 213.972 14.2559 212.846 15.3026 211.606L24.5392 214.257ZM29.6283 207.135C28.5511 209 27.4027 210.711 26.209 212.25L26.2547 212.107L16.9985 209.45C17.3671 208.951 17.73 208.435 18.0885 207.906C18.8272 206.81 19.539 205.648 20.2235 204.435L29.6283 207.135ZM34.1144 197.2C33.1792 199.921 32.0753 202.479 30.8585 204.847L21.4398 202.143C22.645 199.756 23.7248 197.192 24.6532 194.484L34.1144 197.2ZM36.712 186.39C36.3342 189.096 35.7392 191.91 34.8831 194.778L25.4343 192.065C26.2847 189.215 26.9051 186.404 27.3069 183.69L36.712 186.39ZM37.1447 177.931C37.194 178.877 37.2088 179.851 37.1864 180.855C37.1653 181.824 37.1031 182.822 37.0145 183.837L27.6211 181.14C27.8224 179.107 27.8922 177.138 27.8388 175.26L37.1447 177.931ZM35.8914 170.639C36.3425 172.019 36.6807 173.554 36.9011 175.221L27.669 172.571C27.5903 171.776 27.49 170.998 27.3626 170.246C27.2327 169.493 27.0775 168.764 26.9011 168.058L35.8914 170.639ZM29.5364 163.204C30.4314 163.461 31.2485 163.883 32.004 164.477C32.9821 165.24 33.8586 166.301 34.5996 167.628L26.0817 165.183L26.0357 165.326C25.5588 164.094 24.9926 162.96 24.3212 161.95C24.2523 161.847 24.1812 161.747 24.1104 161.646L29.5364 163.204ZM20.028 161.039C21.3482 162.069 22.4833 163.638 23.3474 165.672C24.6457 168.717 25.3144 172.786 25.2103 177.417C25.1102 182.047 24.2453 187.239 22.5412 192.556C19.9484 200.658 15.8916 207.495 11.5381 211.921C9.3655 214.135 7.12484 215.742 5.00648 216.632C3.94897 217.078 2.92572 217.347 1.95167 217.442C0.975128 217.537 0.0489968 217.459 -0.844885 217.203C-1.73877 216.946 -2.55448 216.524 -3.31071 215.932C-4.63126 214.898 -5.76716 213.332 -6.62853 211.297C-7.92779 208.25 -8.59767 204.182 -8.49371 199.552C-8.3923 194.922 -7.52599 189.73 -5.8222 184.413C-3.23065 176.311 0.826933 169.476 5.17934 165.049C7.35125 162.833 9.59457 161.227 11.7098 160.338C12.7676 159.891 13.7908 159.622 14.7657 159.528C15.7426 159.432 16.6686 159.509 17.5626 159.766C18.4566 160.023 19.2722 160.445 20.028 161.039Z" fill="#F4F1EB"/>
<path d="M11.0232 167.712C9.32126 168.431 7.61945 169.666 5.9932 171.326L5.99392 171.323C2.74493 174.631 -0.18839 179.604 -2.07773 185.487L-2.08201 185.504L-2.08303 185.504C-3.32046 189.368 -3.95391 193.147 -4.02774 196.549C-4.10157 199.951 -3.62013 202.971 -2.61644 205.334L-2.61775 205.331C-1.94867 206.909 -1.04749 208.187 0.09171 209.08C0.737513 209.589 1.46858 209.969 2.2603 210.195C2.91126 210.382 3.60217 210.028 3.8026 209.402C4.00308 208.777 3.63655 208.119 2.98559 207.932C2.5102 207.794 2.0852 207.578 1.6625 207.248C0.929777 206.677 0.222303 205.737 -0.32806 204.431L-0.329364 204.427C-1.16418 202.479 -1.63345 199.735 -1.55955 196.58C-1.49267 193.424 -0.898423 189.846 0.277449 186.181L0.296558 186.122C2.07943 180.563 4.87902 175.882 7.78534 172.937L7.78759 172.934C9.23596 171.453 10.7137 170.413 12.0041 169.873C12.6515 169.6 13.2505 169.446 13.7944 169.394C14.4734 169.328 14.971 168.749 14.9073 168.1C14.8438 167.45 14.2426 166.978 13.5637 167.044C12.7246 167.126 11.8735 167.352 11.0232 167.712Z" fill="#F4F1EB"/>
</g>
<path d="M54.8423 168.818V179H53.3011V170.359H53.2415L50.8054 171.95V170.479L53.3459 168.818H54.8423ZM57.9396 179L62.3842 170.21V170.136H57.2436V168.818H63.9751V170.18L59.5455 179H57.9396ZM68.9529 168.679C69.407 168.682 69.8545 168.765 70.2953 168.928C70.7361 169.09 71.1338 169.355 71.4885 169.723C71.8464 170.091 72.1315 170.588 72.3436 171.214C72.559 171.838 72.6684 172.613 72.6717 173.541C72.6717 174.433 72.5822 175.227 72.4032 175.923C72.2243 176.615 71.9674 177.2 71.6326 177.678C71.3012 178.155 70.8985 178.518 70.4245 178.766C69.9506 179.015 69.417 179.139 68.8237 179.139C68.2172 179.139 67.6786 179.02 67.2079 178.781C66.7373 178.543 66.3545 178.213 66.0595 177.792C65.7645 177.368 65.5806 176.88 65.5076 176.33H67.024C67.1234 176.768 67.3256 177.122 67.6305 177.394C67.9387 177.663 68.3365 177.797 68.8237 177.797C69.5694 177.797 70.1511 177.472 70.5687 176.822C70.9863 176.17 71.1968 175.258 71.2001 174.088H71.1206C70.9482 174.373 70.7328 174.618 70.4743 174.824C70.219 175.029 69.9324 175.188 69.6142 175.301C69.296 175.414 68.9563 175.47 68.595 175.47C68.0083 175.47 67.4747 175.326 66.9941 175.038C66.5136 174.749 66.1307 174.353 65.8457 173.849C65.5607 173.346 65.4181 172.771 65.4181 172.124C65.4181 171.481 65.564 170.898 65.8556 170.374C66.1506 169.851 66.5616 169.436 67.0886 169.131C67.6189 168.823 68.2404 168.672 68.9529 168.679ZM68.9579 169.972C68.5701 169.972 68.2205 170.068 67.9089 170.26C67.6007 170.449 67.3571 170.706 67.1781 171.031C66.9991 171.352 66.9096 171.71 66.9096 172.104C66.9096 172.499 66.9958 172.857 67.1681 173.178C67.3438 173.496 67.5824 173.75 67.8841 173.939C68.189 174.125 68.537 174.217 68.9281 174.217C69.2198 174.217 69.4915 174.161 69.7434 174.048C69.9953 173.936 70.2157 173.78 70.4047 173.581C70.5936 173.379 70.7411 173.15 70.8471 172.895C70.9532 172.64 71.0062 172.371 71.0062 172.089C71.0062 171.715 70.9167 171.367 70.7377 171.045C70.5621 170.724 70.3201 170.465 70.0119 170.27C69.7037 170.071 69.3523 169.972 68.9579 169.972ZM76.0524 177.608L75.9778 178.15C75.9281 178.548 75.8436 178.962 75.7243 179.393C75.6083 179.827 75.4873 180.23 75.3613 180.601C75.2387 180.972 75.1376 181.267 75.0581 181.486H74.0041C74.0472 181.28 74.1068 181.002 74.1831 180.651C74.2593 180.303 74.3339 179.913 74.4068 179.482C74.4797 179.051 74.5344 178.612 74.5708 178.165L74.6206 177.608H76.0524ZM81.3074 179.169C80.5218 179.166 79.8507 178.959 79.2939 178.548C78.737 178.137 78.3111 177.538 78.0162 176.753C77.7212 175.967 77.5737 175.021 77.5737 173.914C77.5737 172.81 77.7212 171.867 78.0162 171.085C78.3145 170.303 78.742 169.706 79.2988 169.295C79.859 168.884 80.5285 168.679 81.3074 168.679C82.0862 168.679 82.7541 168.886 83.3109 169.3C83.8677 169.711 84.2936 170.308 84.5886 171.09C84.8869 171.869 85.036 172.81 85.036 173.914C85.036 175.024 84.8886 175.972 84.5936 176.758C84.2986 177.54 83.8727 178.138 83.3159 178.553C82.7591 178.964 82.0895 179.169 81.3074 179.169ZM81.3074 177.842C81.9967 177.842 82.5353 177.505 82.9231 176.832C83.3142 176.16 83.5098 175.187 83.5098 173.914C83.5098 173.069 83.4203 172.355 83.2413 171.771C83.0656 171.185 82.8121 170.741 82.4806 170.439C82.1525 170.134 81.7614 169.982 81.3074 169.982C80.6213 169.982 80.0827 170.32 79.6916 170.996C79.3005 171.672 79.1033 172.645 79.1 173.914C79.1 174.763 79.1878 175.48 79.3635 176.067C79.5424 176.65 79.796 177.093 80.1241 177.394C80.4522 177.692 80.8467 177.842 81.3074 177.842ZM90.3445 179.169C89.5589 179.166 88.8878 178.959 88.331 178.548C87.7741 178.137 87.3482 177.538 87.0533 176.753C86.7583 175.967 86.6108 175.021 86.6108 173.914C86.6108 172.81 86.7583 171.867 87.0533 171.085C87.3516 170.303 87.7791 169.706 88.3359 169.295C88.8961 168.884 89.5656 168.679 90.3445 168.679C91.1233 168.679 91.7912 168.886 92.348 169.3C92.9048 169.711 93.3307 170.308 93.6257 171.09C93.924 171.869 94.0732 172.81 94.0732 173.914C94.0732 175.024 93.9257 175.972 93.6307 176.758C93.3357 177.54 92.9098 178.138 92.353 178.553C91.7962 178.964 91.1267 179.169 90.3445 179.169ZM90.3445 177.842C91.0339 177.842 91.5724 177.505 91.9602 176.832C92.3513 176.16 92.5469 175.187 92.5469 173.914C92.5469 173.069 92.4574 172.355 92.2784 171.771C92.1027 171.185 91.8492 170.741 91.5178 170.439C91.1896 170.134 90.7985 169.982 90.3445 169.982C89.6584 169.982 89.1198 170.32 88.7287 170.996C88.3376 171.672 88.1404 172.645 88.1371 173.914C88.1371 174.763 88.2249 175.48 88.4006 176.067C88.5795 176.65 88.8331 177.093 89.1612 177.394C89.4893 177.692 89.8838 177.842 90.3445 177.842ZM99.3816 179.169C98.5961 179.166 97.9249 178.959 97.3681 178.548C96.8113 178.137 96.3854 177.538 96.0904 176.753C95.7954 175.967 95.6479 175.021 95.6479 173.914C95.6479 172.81 95.7954 171.867 96.0904 171.085C96.3887 170.303 96.8162 169.706 97.373 169.295C97.9332 168.884 98.6027 168.679 99.3816 168.679C100.16 168.679 100.828 168.886 101.385 169.3C101.942 169.711 102.368 170.308 102.663 171.09C102.961 171.869 103.11 172.81 103.11 173.914C103.11 175.024 102.963 175.972 102.668 176.758C102.373 177.54 101.947 178.138 101.39 178.553C100.833 178.964 100.164 179.169 99.3816 179.169ZM99.3816 177.842C100.071 177.842 100.61 177.505 100.997 176.832C101.388 176.16 101.584 175.187 101.584 173.914C101.584 173.069 101.494 172.355 101.316 171.771C101.14 171.185 100.886 170.741 100.555 170.439C100.227 170.134 99.8356 169.982 99.3816 169.982C98.6955 169.982 98.1569 170.32 97.7658 170.996C97.3747 171.672 97.1775 172.645 97.1742 173.914C97.1742 174.763 97.262 175.48 97.4377 176.067C97.6167 176.65 97.8702 177.093 98.1983 177.394C98.5265 177.692 98.9209 177.842 99.3816 177.842ZM108.833 179V168.818H112.273C113.072 168.818 113.725 168.962 114.232 169.251C114.742 169.536 115.12 169.922 115.365 170.409C115.61 170.896 115.733 171.44 115.733 172.04C115.733 172.64 115.61 173.185 115.365 173.675C115.123 174.166 114.749 174.557 114.242 174.849C113.735 175.137 113.085 175.281 112.293 175.281H109.827V174.188H112.253C112.8 174.188 113.239 174.093 113.57 173.904C113.902 173.715 114.142 173.46 114.291 173.138C114.444 172.814 114.52 172.447 114.52 172.04C114.52 171.632 114.444 171.268 114.291 170.946C114.142 170.625 113.9 170.373 113.566 170.19C113.231 170.005 112.787 169.912 112.233 169.912H110.066V179H108.833ZM120.58 179.159C119.891 179.159 119.286 178.995 118.766 178.667C118.249 178.339 117.844 177.88 117.553 177.29C117.264 176.7 117.12 176.01 117.12 175.222C117.12 174.426 117.264 173.732 117.553 173.138C117.844 172.545 118.249 172.085 118.766 171.756C119.286 171.428 119.891 171.264 120.58 171.264C121.27 171.264 121.873 171.428 122.39 171.756C122.91 172.085 123.315 172.545 123.603 173.138C123.895 173.732 124.041 174.426 124.041 175.222C124.041 176.01 123.895 176.7 123.603 177.29C123.315 177.88 122.91 178.339 122.39 178.667C121.873 178.995 121.27 179.159 120.58 179.159ZM120.58 178.105C121.104 178.105 121.535 177.971 121.873 177.702C122.211 177.434 122.461 177.081 122.624 176.643C122.786 176.206 122.867 175.732 122.867 175.222C122.867 174.711 122.786 174.236 122.624 173.795C122.461 173.354 122.211 172.998 121.873 172.726C121.535 172.454 121.104 172.318 120.58 172.318C120.057 172.318 119.626 172.454 119.288 172.726C118.95 172.998 118.7 173.354 118.537 173.795C118.375 174.236 118.294 174.711 118.294 175.222C118.294 175.732 118.375 176.206 118.537 176.643C118.7 177.081 118.95 177.434 119.288 177.702C119.626 177.971 120.057 178.105 120.58 178.105ZM125.832 179V171.364H127.005V179H125.832ZM126.428 170.091C126.2 170.091 126.002 170.013 125.837 169.857C125.674 169.701 125.593 169.514 125.593 169.295C125.593 169.077 125.674 168.889 125.837 168.734C126.002 168.578 126.2 168.5 126.428 168.5C126.657 168.5 126.853 168.578 127.015 168.734C127.181 168.889 127.263 169.077 127.263 169.295C127.263 169.514 127.181 169.701 127.015 169.857C126.853 170.013 126.657 170.091 126.428 170.091ZM130.327 174.406V179H129.154V171.364H130.287V172.557H130.387C130.566 172.169 130.838 171.857 131.202 171.622C131.567 171.384 132.037 171.264 132.614 171.264C133.131 171.264 133.584 171.37 133.971 171.582C134.359 171.791 134.661 172.109 134.876 172.537C135.092 172.961 135.199 173.498 135.199 174.148V179H134.026V174.227C134.026 173.627 133.87 173.16 133.559 172.825C133.247 172.487 132.82 172.318 132.276 172.318C131.902 172.318 131.567 172.399 131.272 172.562C130.98 172.724 130.75 172.961 130.581 173.273C130.412 173.584 130.327 173.962 130.327 174.406ZM140.664 171.364V172.358H136.707V171.364H140.664ZM137.86 169.534H139.034V176.812C139.034 177.144 139.082 177.393 139.178 177.558C139.277 177.721 139.403 177.83 139.556 177.886C139.712 177.939 139.876 177.966 140.048 177.966C140.177 177.966 140.283 177.959 140.366 177.946C140.449 177.929 140.515 177.916 140.565 177.906L140.804 178.96C140.724 178.99 140.613 179.02 140.471 179.05C140.328 179.083 140.147 179.099 139.929 179.099C139.597 179.099 139.272 179.028 138.954 178.886C138.639 178.743 138.377 178.526 138.169 178.234C137.963 177.943 137.86 177.575 137.86 177.131V169.534ZM147.702 173.074L146.648 173.372C146.581 173.196 146.484 173.026 146.354 172.86C146.228 172.691 146.056 172.552 145.837 172.442C145.619 172.333 145.339 172.278 144.997 172.278C144.53 172.278 144.14 172.386 143.829 172.602C143.521 172.814 143.366 173.084 143.366 173.412C143.366 173.704 143.473 173.934 143.685 174.103C143.897 174.272 144.228 174.413 144.679 174.526L145.812 174.804C146.495 174.97 147.004 175.223 147.339 175.565C147.674 175.903 147.841 176.339 147.841 176.872C147.841 177.31 147.715 177.701 147.463 178.045C147.214 178.39 146.866 178.662 146.419 178.861C145.972 179.06 145.451 179.159 144.858 179.159C144.079 179.159 143.434 178.99 142.924 178.652C142.414 178.314 142.09 177.82 141.955 177.17L143.068 176.892C143.174 177.303 143.375 177.611 143.67 177.817C143.968 178.022 144.357 178.125 144.838 178.125C145.385 178.125 145.819 178.009 146.141 177.777C146.465 177.542 146.628 177.26 146.628 176.932C146.628 176.667 146.535 176.445 146.349 176.266C146.164 176.083 145.879 175.947 145.494 175.858L144.222 175.56C143.522 175.394 143.009 175.137 142.68 174.789C142.356 174.438 142.193 173.999 142.193 173.472C142.193 173.041 142.314 172.66 142.556 172.328C142.801 171.997 143.134 171.737 143.555 171.548C143.98 171.359 144.46 171.264 144.997 171.264C145.753 171.264 146.346 171.43 146.777 171.761C147.211 172.093 147.519 172.53 147.702 173.074Z" fill="#F7F7F7"/>
<path d="M234.961 178V167.818H238.402C239.197 167.818 239.85 167.954 240.361 168.226C240.871 168.494 241.249 168.864 241.494 169.335C241.739 169.805 241.862 170.34 241.862 170.94C241.862 171.54 241.739 172.072 241.494 172.536C241.249 173 240.873 173.365 240.366 173.63C239.858 173.892 239.211 174.023 238.422 174.023H235.638V172.909H238.382C238.925 172.909 239.363 172.83 239.694 172.67C240.029 172.511 240.271 172.286 240.42 171.994C240.573 171.699 240.649 171.348 240.649 170.94C240.649 170.533 240.573 170.176 240.42 169.871C240.268 169.567 240.024 169.331 239.689 169.165C239.355 168.996 238.912 168.912 238.362 168.912H236.194V178H234.961ZM239.754 173.426L242.26 178H240.828L238.362 173.426H239.754ZM246.877 178.159C246.141 178.159 245.507 177.997 244.973 177.672C244.443 177.344 244.033 176.886 243.745 176.3C243.46 175.71 243.317 175.024 243.317 174.241C243.317 173.459 243.46 172.77 243.745 172.173C244.033 171.573 244.434 171.106 244.948 170.771C245.465 170.433 246.068 170.264 246.758 170.264C247.156 170.264 247.548 170.33 247.936 170.463C248.324 170.596 248.677 170.811 248.995 171.109C249.313 171.404 249.567 171.795 249.756 172.283C249.945 172.77 250.039 173.37 250.039 174.082V174.58H244.153V173.565H248.846C248.846 173.134 248.76 172.75 248.587 172.412C248.418 172.074 248.176 171.807 247.862 171.612C247.55 171.416 247.182 171.318 246.758 171.318C246.29 171.318 245.886 171.434 245.545 171.666C245.207 171.895 244.946 172.193 244.764 172.561C244.582 172.929 244.491 173.323 244.491 173.744V174.42C244.491 174.997 244.59 175.486 244.789 175.887C244.991 176.285 245.271 176.588 245.629 176.797C245.987 177.002 246.403 177.105 246.877 177.105C247.185 177.105 247.464 177.062 247.712 176.976C247.964 176.886 248.181 176.754 248.364 176.578C248.546 176.399 248.687 176.177 248.786 175.912L249.92 176.23C249.8 176.615 249.6 176.953 249.318 177.244C249.036 177.533 248.688 177.758 248.274 177.92C247.86 178.08 247.394 178.159 246.877 178.159ZM253.554 178L251.227 170.364H252.46L254.111 176.21H254.19L255.821 170.364H257.074L258.685 176.19H258.764L260.415 170.364H261.648L259.321 178H258.168L256.497 172.134H256.378L254.707 178H253.554ZM265.446 178.179C264.962 178.179 264.523 178.088 264.129 177.906C263.734 177.72 263.421 177.453 263.189 177.105C262.957 176.754 262.841 176.33 262.841 175.832C262.841 175.395 262.927 175.04 263.099 174.768C263.272 174.493 263.502 174.278 263.79 174.122C264.079 173.966 264.397 173.85 264.745 173.774C265.096 173.695 265.449 173.632 265.804 173.585C266.268 173.526 266.644 173.481 266.933 173.451C267.224 173.418 267.436 173.363 267.569 173.287C267.705 173.211 267.773 173.078 267.773 172.889V172.849C267.773 172.359 267.638 171.978 267.37 171.706C267.105 171.434 266.702 171.298 266.162 171.298C265.602 171.298 265.163 171.421 264.844 171.666C264.526 171.911 264.303 172.173 264.173 172.452L263.06 172.054C263.259 171.59 263.524 171.229 263.855 170.97C264.19 170.708 264.554 170.526 264.949 170.423C265.347 170.317 265.738 170.264 266.122 170.264C266.367 170.264 266.649 170.294 266.967 170.354C267.289 170.41 267.599 170.528 267.897 170.707C268.199 170.886 268.449 171.156 268.648 171.517C268.847 171.878 268.946 172.362 268.946 172.969V178H267.773V176.966H267.713C267.634 177.132 267.501 177.309 267.315 177.498C267.13 177.687 266.883 177.848 266.575 177.98C266.266 178.113 265.89 178.179 265.446 178.179ZM265.625 177.125C266.089 177.125 266.48 177.034 266.798 176.852C267.12 176.669 267.362 176.434 267.524 176.146C267.69 175.857 267.773 175.554 267.773 175.236V174.162C267.723 174.222 267.614 174.276 267.445 174.326C267.279 174.372 267.087 174.414 266.868 174.45C266.652 174.483 266.442 174.513 266.237 174.54C266.034 174.563 265.87 174.583 265.744 174.599C265.439 174.639 265.154 174.704 264.889 174.793C264.627 174.879 264.415 175.01 264.253 175.186C264.094 175.358 264.014 175.594 264.014 175.892C264.014 176.3 264.165 176.608 264.467 176.817C264.772 177.022 265.158 177.125 265.625 177.125ZM271.088 178V170.364H272.221V171.517H272.301C272.44 171.139 272.692 170.833 273.056 170.597C273.421 170.362 273.832 170.244 274.289 170.244C274.375 170.244 274.483 170.246 274.612 170.249C274.742 170.253 274.839 170.258 274.906 170.264V171.457C274.866 171.447 274.775 171.433 274.632 171.413C274.493 171.389 274.346 171.378 274.19 171.378C273.819 171.378 273.487 171.456 273.195 171.612C272.907 171.764 272.678 171.976 272.509 172.248C272.344 172.516 272.261 172.823 272.261 173.168V178H271.088ZM278.948 178.159C278.311 178.159 277.749 177.998 277.262 177.677C276.775 177.352 276.394 176.895 276.119 176.305C275.844 175.711 275.706 175.01 275.706 174.202C275.706 173.4 275.844 172.704 276.119 172.114C276.394 171.524 276.777 171.068 277.267 170.746C277.758 170.425 278.325 170.264 278.968 170.264C279.465 170.264 279.857 170.347 280.146 170.513C280.437 170.675 280.66 170.861 280.812 171.07C280.968 171.275 281.089 171.444 281.175 171.577H281.274V167.818H282.448V178H281.314V176.827H281.175C281.089 176.966 280.966 177.142 280.807 177.354C280.648 177.562 280.421 177.75 280.126 177.915C279.831 178.078 279.438 178.159 278.948 178.159ZM279.107 177.105C279.577 177.105 279.975 176.982 280.3 176.737C280.625 176.489 280.872 176.146 281.041 175.708C281.21 175.267 281.294 174.759 281.294 174.182C281.294 173.612 281.211 173.113 281.046 172.685C280.88 172.254 280.635 171.92 280.31 171.681C279.985 171.439 279.584 171.318 279.107 171.318C278.61 171.318 278.195 171.446 277.864 171.701C277.536 171.953 277.289 172.296 277.123 172.73C276.961 173.161 276.879 173.645 276.879 174.182C276.879 174.725 276.962 175.219 277.128 175.663C277.297 176.104 277.546 176.455 277.874 176.717C278.205 176.976 278.616 177.105 279.107 177.105ZM290.169 172.074L289.115 172.372C289.048 172.196 288.95 172.026 288.821 171.86C288.695 171.691 288.523 171.552 288.304 171.442C288.085 171.333 287.805 171.278 287.464 171.278C286.997 171.278 286.607 171.386 286.296 171.602C285.987 171.814 285.833 172.084 285.833 172.412C285.833 172.704 285.939 172.934 286.151 173.103C286.364 173.272 286.695 173.413 287.146 173.526L288.279 173.804C288.962 173.97 289.471 174.223 289.806 174.565C290.14 174.903 290.308 175.339 290.308 175.872C290.308 176.31 290.182 176.701 289.93 177.045C289.681 177.39 289.333 177.662 288.886 177.861C288.438 178.06 287.918 178.159 287.325 178.159C286.546 178.159 285.901 177.99 285.391 177.652C284.88 177.314 284.557 176.82 284.421 176.17L285.535 175.892C285.641 176.303 285.842 176.611 286.137 176.817C286.435 177.022 286.824 177.125 287.305 177.125C287.852 177.125 288.286 177.009 288.607 176.777C288.932 176.542 289.095 176.26 289.095 175.932C289.095 175.667 289.002 175.445 288.816 175.266C288.631 175.083 288.346 174.947 287.961 174.858L286.688 174.56C285.989 174.394 285.475 174.137 285.147 173.789C284.822 173.438 284.66 172.999 284.66 172.472C284.66 172.041 284.781 171.66 285.023 171.328C285.268 170.997 285.601 170.737 286.022 170.548C286.446 170.359 286.927 170.264 287.464 170.264C288.22 170.264 288.813 170.43 289.244 170.761C289.678 171.093 289.986 171.53 290.169 172.074Z" fill="#F7F7F7"/>
<path d="M304.333 168.5L308.333 172.5M308.333 172.5L304.333 176.5M308.333 172.5H298.333" stroke="#F4F1EB" stroke-linecap="round" stroke-linejoin="round"/>
</g>
<path opacity="0.6" d="M8 140H321" stroke="#F4F1EB" stroke-linecap="round" stroke-dasharray="8 8"/>
<path d="M0 221C0 214.453 0 211.18 1.4736 208.775C2.29816 207.429 3.42946 206.298 4.77501 205.474C7.17971 204 10.4531 204 17 204H108.667V238H17C10.4531 238 7.17971 238 4.77501 236.526C3.42946 235.702 2.29816 234.571 1.4736 233.225C0 230.82 0 227.547 0 221Z" fill="#F4F1EB"/>
<path d="M32.0476 217.969H23.068C22.9192 217.969 22.7764 217.91 22.6712 217.805C22.5659 217.7 22.5068 217.557 22.5068 217.408C22.5068 217.259 22.5659 217.117 22.6712 217.011C22.7764 216.906 22.9192 216.847 23.068 216.847H30.7007C30.79 216.847 30.8756 216.811 30.9388 216.748C31.0019 216.685 31.0374 216.6 31.0374 216.51C31.0374 216.421 31.0019 216.335 30.9388 216.272C30.8756 216.209 30.79 216.173 30.7007 216.173H23.068C22.7405 216.173 22.4265 216.304 22.1949 216.535C21.9634 216.767 21.8333 217.081 21.8333 217.408V224.592C21.8333 224.919 21.9634 225.233 22.1949 225.465C22.4265 225.696 22.7405 225.827 23.068 225.827H32.0476C32.256 225.827 32.4558 225.744 32.6032 225.596C32.7505 225.449 32.8333 225.249 32.8333 225.041V218.755C32.8333 218.547 32.7505 218.347 32.6032 218.2C32.4558 218.052 32.256 217.969 32.0476 217.969ZM32.1598 225.041C32.1598 225.071 32.148 225.099 32.127 225.12C32.1059 225.141 32.0774 225.153 32.0476 225.153H23.068C22.9192 225.153 22.7764 225.094 22.6712 224.989C22.5659 224.883 22.5068 224.741 22.5068 224.592V218.508C22.6804 218.597 22.8728 218.643 23.068 218.643H32.0476C32.0774 218.643 32.1059 218.655 32.127 218.676C32.148 218.697 32.1598 218.725 32.1598 218.755V225.041ZM30.5884 221.673C30.5884 221.784 30.5555 221.893 30.4938 221.985C30.4322 222.078 30.3445 222.149 30.242 222.192C30.1394 222.234 30.0266 222.246 29.9177 222.224C29.8088 222.202 29.7088 222.149 29.6303 222.07C29.5519 221.992 29.4984 221.892 29.4767 221.783C29.4551 221.674 29.4662 221.561 29.5087 221.459C29.5512 221.356 29.6231 221.268 29.7154 221.207C29.8077 221.145 29.9162 221.112 30.0272 221.112C30.176 221.112 30.3188 221.171 30.424 221.277C30.5293 221.382 30.5884 221.525 30.5884 221.673Z" fill="#141414" stroke="#141414" stroke-width="0.3"/>
<path d="M41.69 217.141V215.818H49.57V217.141H46.3931V226H44.8619V217.141H41.69ZM53.3012 226.154C52.5853 226.154 51.9605 225.99 51.4269 225.662C50.8933 225.334 50.479 224.875 50.184 224.285C49.889 223.695 49.7415 223.005 49.7415 222.217C49.7415 221.424 49.889 220.732 50.184 220.138C50.479 219.545 50.8933 219.085 51.4269 218.756C51.9605 218.428 52.5853 218.264 53.3012 218.264C54.0171 218.264 54.6418 218.428 55.1755 218.756C55.7091 219.085 56.1234 219.545 56.4184 220.138C56.7133 220.732 56.8608 221.424 56.8608 222.217C56.8608 223.005 56.7133 223.695 56.4184 224.285C56.1234 224.875 55.7091 225.334 55.1755 225.662C54.6418 225.99 54.0171 226.154 53.3012 226.154ZM53.3061 224.906C53.7702 224.906 54.1546 224.784 54.4596 224.538C54.7645 224.293 54.9899 223.967 55.1357 223.559C55.2848 223.151 55.3594 222.702 55.3594 222.212C55.3594 221.724 55.2848 221.277 55.1357 220.869C54.9899 220.458 54.7645 220.129 54.4596 219.88C54.1546 219.631 53.7702 219.507 53.3061 219.507C52.8388 219.507 52.451 219.631 52.1428 219.88C51.8379 220.129 51.6108 220.458 51.4617 220.869C51.3159 221.277 51.2429 221.724 51.2429 222.212C51.2429 222.702 51.3159 223.151 51.4617 223.559C51.6108 223.967 51.8379 224.293 52.1428 224.538C52.451 224.784 52.8388 224.906 53.3061 224.906ZM58.5201 228.864V218.364H59.9718V219.602H60.0961C60.1823 219.442 60.3066 219.259 60.469 219.05C60.6314 218.841 60.8568 218.659 61.1451 218.503C61.4335 218.344 61.8146 218.264 62.2886 218.264C62.905 218.264 63.4552 218.42 63.9391 218.732C64.423 219.043 64.8025 219.492 65.0776 220.079C65.356 220.665 65.4952 221.371 65.4952 222.197C65.4952 223.022 65.3577 223.73 65.0826 224.32C64.8075 224.906 64.4297 225.359 63.9491 225.677C63.4685 225.992 62.92 226.149 62.3035 226.149C61.8395 226.149 61.46 226.071 61.165 225.915C60.8733 225.76 60.6446 225.577 60.4789 225.369C60.3132 225.16 60.1856 224.974 60.0961 224.812H60.0066V228.864H58.5201ZM59.9768 222.182C59.9768 222.719 60.0547 223.189 60.2104 223.594C60.3662 223.998 60.5916 224.315 60.8866 224.543C61.1816 224.769 61.5428 224.881 61.9704 224.881C62.4145 224.881 62.7857 224.764 63.084 224.528C63.3823 224.29 63.6077 223.967 63.7602 223.559C63.9159 223.151 63.9938 222.692 63.9938 222.182C63.9938 221.678 63.9176 221.226 63.7651 220.825C63.616 220.424 63.3906 220.107 63.089 219.875C62.7907 219.643 62.4178 219.527 61.9704 219.527C61.5395 219.527 61.1749 219.638 60.8766 219.86C60.5817 220.082 60.3579 220.392 60.2055 220.79C60.053 221.187 59.9768 221.652 59.9768 222.182ZM75.7032 222.833V218.364H77.1946V226H75.733V224.678H75.6534C75.4778 225.085 75.1961 225.425 74.8083 225.697C74.4238 225.965 73.9449 226.099 73.3715 226.099C72.881 226.099 72.4468 225.992 72.0689 225.776C71.6944 225.558 71.3994 225.234 71.184 224.807C70.9719 224.379 70.8658 223.851 70.8658 223.221V218.364H72.3523V223.042C72.3523 223.562 72.4965 223.977 72.7848 224.285C73.0732 224.593 73.4477 224.747 73.9084 224.747C74.1868 224.747 74.4636 224.678 74.7387 224.538C75.0171 224.399 75.2474 224.189 75.4297 223.907C75.6153 223.625 75.7065 223.267 75.7032 222.833ZM79.192 228.864V218.364H80.6437V219.602H80.768C80.8541 219.442 80.9784 219.259 81.1408 219.05C81.3032 218.841 81.5286 218.659 81.817 218.503C82.1053 218.344 82.4865 218.264 82.9604 218.264C83.5769 218.264 84.1271 218.42 84.611 218.732C85.0949 219.043 85.4744 219.492 85.7495 220.079C86.0279 220.665 86.1671 221.371 86.1671 222.197C86.1671 223.022 86.0296 223.73 85.7545 224.32C85.4794 224.906 85.1015 225.359 84.621 225.677C84.1404 225.992 83.5918 226.149 82.9754 226.149C82.5113 226.149 82.1318 226.071 81.8369 225.915C81.5452 225.76 81.3165 225.577 81.1508 225.369C80.9851 225.16 80.8575 224.974 80.768 224.812H80.6785V228.864H79.192ZM80.6487 222.182C80.6487 222.719 80.7265 223.189 80.8823 223.594C81.0381 223.998 81.2635 224.315 81.5585 224.543C81.8534 224.769 82.2147 224.881 82.6423 224.881C83.0864 224.881 83.4576 224.764 83.7559 224.528C84.0542 224.29 84.2796 223.967 84.432 223.559C84.5878 223.151 84.6657 222.692 84.6657 222.182C84.6657 221.678 84.5895 221.226 84.437 220.825C84.2879 220.424 84.0625 220.107 83.7609 219.875C83.4626 219.643 83.0897 219.527 82.6423 219.527C82.2114 219.527 81.8468 219.638 81.5485 219.86C81.2535 220.082 81.0298 220.392 80.8773 220.79C80.7249 221.187 80.6487 221.652 80.6487 222.182Z" fill="#141414"/>
<rect width="108.667" height="34" transform="translate(109.667 204)" fill="#F4F1EB"/>
<path d="M127.625 223.342V224.75C127.625 224.916 127.691 225.075 127.808 225.192C127.925 225.309 128.084 225.375 128.25 225.375H135.75C135.916 225.375 136.075 225.309 136.192 225.192C136.309 225.075 136.375 224.916 136.375 224.75V223.342M132.126 217.198V222.511M134.216 218.667L132.126 216.625L130.036 218.667" stroke="black" stroke-linecap="round" stroke-linejoin="round"/>
<path d="M148.185 217.141V215.818H156.065V217.141H152.888V226H151.357V217.141H148.185ZM156.894 226V218.364H158.331V219.577H158.41C158.549 219.166 158.795 218.843 159.146 218.607C159.501 218.369 159.902 218.249 160.349 218.249C160.442 218.249 160.551 218.253 160.677 218.259C160.806 218.266 160.908 218.274 160.98 218.284V219.706C160.921 219.689 160.815 219.671 160.662 219.651C160.51 219.628 160.357 219.616 160.205 219.616C159.854 219.616 159.54 219.691 159.265 219.84C158.993 219.986 158.778 220.19 158.619 220.452C158.46 220.71 158.38 221.005 158.38 221.337V226H156.894ZM164.421 226.169C163.937 226.169 163.499 226.08 163.108 225.901C162.717 225.718 162.407 225.455 162.179 225.11C161.953 224.765 161.841 224.343 161.841 223.842C161.841 223.411 161.923 223.057 162.089 222.778C162.255 222.5 162.479 222.28 162.76 222.117C163.042 221.955 163.357 221.832 163.705 221.749C164.053 221.666 164.408 221.603 164.769 221.56C165.226 221.507 165.597 221.464 165.882 221.431C166.167 221.395 166.375 221.337 166.504 221.257C166.633 221.178 166.698 221.048 166.698 220.869V220.835C166.698 220.4 166.575 220.064 166.33 219.825C166.088 219.587 165.727 219.467 165.246 219.467C164.746 219.467 164.351 219.578 164.063 219.8C163.778 220.019 163.581 220.263 163.471 220.531L162.074 220.213C162.24 219.749 162.482 219.375 162.8 219.089C163.122 218.801 163.491 218.592 163.909 218.463C164.326 218.33 164.766 218.264 165.226 218.264C165.531 218.264 165.854 218.301 166.196 218.374C166.54 218.443 166.862 218.572 167.16 218.761C167.462 218.95 167.709 219.22 167.901 219.572C168.093 219.92 168.189 220.372 168.189 220.929V226H166.738V224.956H166.678C166.582 225.148 166.438 225.337 166.245 225.523C166.053 225.708 165.806 225.862 165.505 225.985C165.203 226.108 164.842 226.169 164.421 226.169ZM164.744 224.976C165.155 224.976 165.506 224.895 165.798 224.732C166.093 224.57 166.317 224.358 166.469 224.096C166.625 223.831 166.703 223.547 166.703 223.246V222.261C166.65 222.314 166.547 222.364 166.395 222.411C166.245 222.454 166.075 222.492 165.882 222.525C165.69 222.555 165.503 222.583 165.321 222.609C165.138 222.633 164.986 222.652 164.863 222.669C164.575 222.705 164.311 222.767 164.073 222.853C163.837 222.939 163.649 223.063 163.506 223.226C163.367 223.385 163.297 223.597 163.297 223.862C163.297 224.23 163.433 224.509 163.705 224.697C163.977 224.883 164.323 224.976 164.744 224.976ZM171.656 221.466V226H170.169V218.364H171.596V219.607H171.691C171.866 219.202 172.141 218.877 172.516 218.632C172.894 218.387 173.369 218.264 173.943 218.264C174.463 218.264 174.919 218.374 175.31 218.592C175.701 218.808 176.004 219.129 176.22 219.557C176.435 219.984 176.543 220.513 176.543 221.143V226H175.056V221.322C175.056 220.768 174.912 220.336 174.624 220.024C174.335 219.709 173.939 219.552 173.436 219.552C173.091 219.552 172.784 219.626 172.516 219.776C172.251 219.925 172.04 220.143 171.884 220.432C171.732 220.717 171.656 221.062 171.656 221.466ZM184.259 220.228L182.911 220.467C182.855 220.294 182.766 220.13 182.643 219.974C182.524 219.819 182.361 219.691 182.156 219.592C181.95 219.492 181.693 219.442 181.385 219.442C180.964 219.442 180.613 219.537 180.331 219.726C180.049 219.911 179.909 220.152 179.909 220.447C179.909 220.702 180.003 220.907 180.192 221.063C180.381 221.219 180.686 221.347 181.107 221.446L182.32 221.724C183.022 221.887 183.546 222.137 183.891 222.475C184.235 222.813 184.408 223.252 184.408 223.793C184.408 224.25 184.275 224.658 184.01 225.016C183.748 225.37 183.382 225.649 182.911 225.851C182.444 226.053 181.902 226.154 181.286 226.154C180.431 226.154 179.733 225.972 179.193 225.607C178.652 225.239 178.321 224.717 178.198 224.041L179.635 223.822C179.725 224.197 179.909 224.48 180.187 224.673C180.465 224.862 180.828 224.956 181.276 224.956C181.763 224.956 182.152 224.855 182.444 224.653C182.736 224.447 182.882 224.197 182.882 223.902C182.882 223.663 182.792 223.463 182.613 223.3C182.437 223.138 182.167 223.015 181.803 222.933L180.51 222.649C179.798 222.487 179.271 222.228 178.929 221.874C178.591 221.519 178.422 221.07 178.422 220.526C178.422 220.076 178.548 219.681 178.8 219.343C179.052 219.005 179.4 218.741 179.844 218.553C180.288 218.36 180.797 218.264 181.37 218.264C182.195 218.264 182.845 218.443 183.319 218.801C183.793 219.156 184.106 219.631 184.259 220.228ZM189.676 218.364V219.557H185.361V218.364H189.676ZM186.544 226V217.479C186.544 217.001 186.649 216.605 186.858 216.29C187.066 215.972 187.343 215.735 187.688 215.58C188.033 215.42 188.407 215.341 188.811 215.341C189.11 215.341 189.365 215.366 189.577 215.415C189.789 215.462 189.947 215.505 190.049 215.545L189.701 216.748C189.632 216.728 189.542 216.705 189.433 216.678C189.324 216.648 189.191 216.634 189.035 216.634C188.674 216.634 188.415 216.723 188.26 216.902C188.107 217.081 188.031 217.339 188.031 217.678V226H186.544ZM194.201 226.154C193.448 226.154 192.8 225.993 192.257 225.672C191.717 225.347 191.299 224.891 191.004 224.305C190.712 223.715 190.566 223.024 190.566 222.232C190.566 221.449 190.712 220.76 191.004 220.163C191.299 219.567 191.71 219.101 192.237 218.766C192.767 218.432 193.387 218.264 194.096 218.264C194.527 218.264 194.945 218.335 195.349 218.478C195.753 218.621 196.116 218.844 196.438 219.149C196.759 219.454 197.013 219.85 197.199 220.337C197.384 220.821 197.477 221.41 197.477 222.102V222.629H191.407V221.516H196.02C196.02 221.125 195.941 220.778 195.782 220.477C195.623 220.172 195.399 219.931 195.11 219.756C194.825 219.58 194.491 219.492 194.106 219.492C193.689 219.492 193.324 219.595 193.012 219.8C192.704 220.003 192.466 220.268 192.297 220.596C192.131 220.921 192.048 221.274 192.048 221.655V222.525C192.048 223.035 192.137 223.469 192.316 223.827C192.499 224.185 192.752 224.459 193.077 224.648C193.402 224.833 193.781 224.926 194.216 224.926C194.497 224.926 194.754 224.886 194.986 224.807C195.218 224.724 195.419 224.601 195.588 224.439C195.757 224.277 195.886 224.076 195.975 223.837L197.382 224.091C197.27 224.505 197.068 224.868 196.776 225.18C196.488 225.488 196.125 225.728 195.687 225.901C195.253 226.07 194.757 226.154 194.201 226.154ZM199.126 226V218.364H200.563V219.577H200.643C200.782 219.166 201.027 218.843 201.378 218.607C201.733 218.369 202.134 218.249 202.581 218.249C202.674 218.249 202.784 218.253 202.91 218.259C203.039 218.266 203.14 218.274 203.213 218.284V219.706C203.153 219.689 203.047 219.671 202.895 219.651C202.742 219.628 202.59 219.616 202.437 219.616C202.086 219.616 201.773 219.691 201.498 219.84C201.226 219.986 201.01 220.19 200.851 220.452C200.692 220.71 200.613 221.005 200.613 221.337V226H199.126Z" fill="#141414"/>
<path d="M219.333 204H311C317.547 204 320.82 204 323.225 205.474C324.571 206.298 325.702 207.429 326.526 208.775C328 211.18 328 214.453 328 221C328 227.547 328 230.82 326.526 233.225C325.702 234.571 324.571 235.702 323.225 236.526C320.82 238 317.547 238 311 238H219.333V204Z" fill="#F4F1EB"/>
<path d="M248.068 222.401C248.84 222.401 249.469 221.772 249.469 221C249.469 220.228 248.84 219.599 248.068 219.599C247.296 219.599 246.667 220.228 246.667 221C246.667 221.772 247.296 222.401 248.068 222.401Z" fill="#141414"/>
<path d="M252.167 222.401C252.939 222.401 253.568 221.772 253.568 221C253.568 220.228 252.939 219.599 252.167 219.599C251.395 219.599 250.766 220.228 250.766 221C250.766 221.772 251.395 222.401 252.167 222.401Z" fill="#141414"/>
<path d="M256.266 222.401C257.038 222.401 257.667 221.772 257.667 221C257.667 220.228 257.038 219.599 256.266 219.599C255.494 219.599 254.865 220.228 254.865 221C254.865 221.772 255.494 222.401 256.266 222.401Z" fill="#141414"/>
<path d="M267.469 215.818H269.333L272.575 223.733H272.694L275.936 215.818H277.8V226H276.338V218.632H276.244L273.241 225.985H272.028L269.025 218.627H268.931V226H267.469V215.818ZM283.131 226.154C282.415 226.154 281.79 225.99 281.256 225.662C280.723 225.334 280.308 224.875 280.014 224.285C279.719 223.695 279.571 223.005 279.571 222.217C279.571 221.424 279.719 220.732 280.014 220.138C280.308 219.545 280.723 219.085 281.256 218.756C281.79 218.428 282.415 218.264 283.131 218.264C283.847 218.264 284.471 218.428 285.005 218.756C285.539 219.085 285.953 219.545 286.248 220.138C286.543 220.732 286.69 221.424 286.69 222.217C286.69 223.005 286.543 223.695 286.248 224.285C285.953 224.875 285.539 225.334 285.005 225.662C284.471 225.99 283.847 226.154 283.131 226.154ZM283.136 224.906C283.6 224.906 283.984 224.784 284.289 224.538C284.594 224.293 284.819 223.967 284.965 223.559C285.114 223.151 285.189 222.702 285.189 222.212C285.189 221.724 285.114 221.277 284.965 220.869C284.819 220.458 284.594 220.129 284.289 219.88C283.984 219.631 283.6 219.507 283.136 219.507C282.668 219.507 282.281 219.631 281.972 219.88C281.667 220.129 281.44 220.458 281.291 220.869C281.145 221.277 281.072 221.724 281.072 222.212C281.072 222.702 281.145 223.151 281.291 223.559C281.44 223.967 281.667 224.293 281.972 224.538C282.281 224.784 282.668 224.906 283.136 224.906ZM288.35 226V218.364H289.786V219.577H289.866C290.005 219.166 290.25 218.843 290.602 218.607C290.956 218.369 291.357 218.249 291.805 218.249C291.898 218.249 292.007 218.253 292.133 218.259C292.262 218.266 292.363 218.274 292.436 218.284V219.706C292.377 219.689 292.271 219.671 292.118 219.651C291.966 219.628 291.813 219.616 291.661 219.616C291.309 219.616 290.996 219.691 290.721 219.84C290.449 219.986 290.234 220.19 290.075 220.452C289.916 220.71 289.836 221.005 289.836 221.337V226H288.35ZM296.74 226.154C295.988 226.154 295.34 225.993 294.797 225.672C294.256 225.347 293.839 224.891 293.544 224.305C293.252 223.715 293.106 223.024 293.106 222.232C293.106 221.449 293.252 220.76 293.544 220.163C293.839 219.567 294.25 219.101 294.777 218.766C295.307 218.432 295.927 218.264 296.636 218.264C297.067 218.264 297.485 218.335 297.889 218.478C298.293 218.621 298.656 218.844 298.978 219.149C299.299 219.454 299.553 219.85 299.738 220.337C299.924 220.821 300.017 221.41 300.017 222.102V222.629H293.946V221.516H298.56C298.56 221.125 298.48 220.778 298.321 220.477C298.162 220.172 297.939 219.931 297.65 219.756C297.365 219.58 297.03 219.492 296.646 219.492C296.228 219.492 295.864 219.595 295.552 219.8C295.244 220.003 295.005 220.268 294.836 220.596C294.671 220.921 294.588 221.274 294.588 221.655V222.525C294.588 223.035 294.677 223.469 294.856 223.827C295.038 224.185 295.292 224.459 295.617 224.648C295.942 224.833 296.321 224.926 296.755 224.926C297.037 224.926 297.294 224.886 297.526 224.807C297.758 224.724 297.958 224.601 298.128 224.439C298.297 224.277 298.426 224.076 298.515 223.837L299.922 224.091C299.81 224.505 299.607 224.868 299.316 225.18C299.027 225.488 298.664 225.728 298.227 225.901C297.793 226.07 297.297 226.154 296.74 226.154Z" fill="#141414"/>
<defs>
<clipPath id="clip0_69_10916">
<rect width="328" height="138" rx="10" fill="white"/>
</clipPath>
<clipPath id="clip1_69_10916">
<rect y="141" width="328" height="59" rx="10" fill="white"/>
</clipPath>
</defs>
</svg>
