<svg width="22" height="22" viewBox="0 0 22 22" fill="none" xmlns="http://www.w3.org/2000/svg">
<path fill-rule="evenodd" clip-rule="evenodd" d="M11.7934 1.0095C12.1564 0.59321 12.7881 0.549943 13.2044 0.912863L20.9905 7.70074C21.3048 7.97473 21.416 8.41502 21.2697 8.80542C21.1234 9.19582 20.7502 9.45449 20.3333 9.45449H1.66663C1.11435 9.45449 0.666626 9.00676 0.666626 8.45449C0.666626 7.90224 1.11435 7.45452 1.66663 7.45452H17.6645L11.8901 2.42041C11.4738 2.05749 11.4305 1.4258 11.7934 1.0095Z" fill="#F4F1EB"/>
<path fill-rule="evenodd" clip-rule="evenodd" d="M10.2065 20.9903C9.84361 21.4067 9.21187 21.4499 8.79561 21.087L1.00954 14.2991C0.695261 14.0251 0.583954 13.5849 0.730248 13.1945C0.876554 12.8041 1.24973 12.5454 1.66667 12.5454H20.3333C20.8856 12.5454 21.3333 12.9931 21.3333 13.5454C21.3333 14.0977 20.8856 14.5454 20.3333 14.5454H4.33549L10.1099 19.5795C10.5261 19.9425 10.5695 20.5741 10.2065 20.9903Z" fill="#F4F1EB"/>
</svg>
