<svg width="18" height="20" viewBox="0 0 18 20" fill="none" xmlns="http://www.w3.org/2000/svg">
<path d="M8.99296 1.69953C8.67407 1.73081 8.36178 1.80918 8.05934 1.9251C7.7572 2.04106 7.46449 2.19414 7.18185 2.37688C6.33416 2.92619 5.55774 3.747 4.87308 4.75874C4.18998 5.77208 3.60174 6.98326 3.17119 8.32671C2.8431 9.35043 2.63643 10.3579 2.54459 11.3112C2.45278 12.2646 2.47575 13.1639 2.61295 13.9732L2.61306 13.9738C2.75161 14.7826 3.00321 15.5088 3.40171 16.1085C3.60153 16.4081 3.83991 16.6769 4.12202 16.8981C4.40434 17.1196 4.73018 17.2913 5.08935 17.3942L7.91057 18.2041C8.2699 18.3075 8.64187 18.3361 9.00662 18.3004C9.3255 18.2691 9.63754 18.1906 9.93996 18.0747C10.2425 17.9586 10.5348 17.8057 10.8174 17.623L10.8179 17.6225C11.665 17.0731 12.4423 16.2534 13.1264 15.2414L13.1297 15.2359C13.8113 14.2234 14.3985 13.0145 14.8287 11.6733C15.1564 10.6497 15.3632 9.64206 15.455 8.6887C15.5468 7.73532 15.5236 6.83593 15.3866 6.02669L15.3863 6.02604C15.2477 5.2172 14.9958 4.49126 14.5979 3.89142L14.5974 3.89101C14.3982 3.59158 14.1599 3.32333 13.8775 3.10207C13.5951 2.88083 13.2691 2.70875 12.9097 2.60558L10.0885 1.79569C9.72935 1.69259 9.35762 1.66406 8.99296 1.69953ZM9.93912 16.8807C9.83224 16.9395 9.72573 16.9925 9.62108 17.037C9.37167 17.1419 9.13058 17.2052 8.90105 17.2278C8.671 17.2501 8.45251 17.2318 8.24163 17.1712L6.96266 16.8041C7.21661 16.7044 7.46834 16.5728 7.71571 16.4132C7.77458 16.3747 7.83338 16.3347 7.89236 16.2931L9.93912 16.8807ZM11.4013 15.6673C11.3216 15.7567 11.2414 15.8443 11.1598 15.927C10.9706 16.1197 10.7792 16.2922 10.5883 16.4449L8.46307 15.8348C8.72357 15.6 8.97837 15.3348 9.225 15.0426L11.4013 15.6673ZM12.6003 13.9893C12.3465 14.4287 12.0759 14.8318 11.7947 15.1943L11.8055 15.1607L9.62458 14.5347C9.71142 14.4172 9.79694 14.2956 9.88138 14.1708C10.0554 13.9126 10.2231 13.6389 10.3844 13.3531L12.6003 13.9893ZM13.6573 11.6483C13.437 12.2896 13.1769 12.8921 12.8902 13.4501L10.671 12.813C10.955 12.2506 11.2094 11.6464 11.4281 11.0084L13.6573 11.6483ZM14.2693 9.10145C14.1803 9.73891 14.0401 10.402 13.8384 11.0777L11.6122 10.4386C11.8125 9.76713 11.9587 9.10483 12.0534 8.46531L14.2693 9.10145ZM14.3713 7.10841C14.3829 7.33123 14.3864 7.56081 14.3811 7.7973C14.3761 8.02558 14.3615 8.26075 14.3406 8.49983L12.1274 7.86448C12.1748 7.38538 12.1913 6.92156 12.1787 6.47898L14.3713 7.10841ZM14.076 5.39031C14.1823 5.71535 14.262 6.07715 14.3139 6.46989L12.1387 5.84545C12.1201 5.65817 12.0965 5.47481 12.0665 5.2976C12.0359 5.12022 11.9993 4.94853 11.9577 4.78222L14.076 5.39031ZM12.5787 3.63841C12.7895 3.69895 12.982 3.79854 13.1601 3.93837C13.3905 4.11825 13.597 4.36829 13.7716 4.68085L11.7647 4.10472L11.7538 4.13857C11.6415 3.84817 11.5081 3.581 11.3499 3.3431C11.3337 3.31884 11.3169 3.29526 11.3002 3.27145L12.5787 3.63841ZM10.3384 3.12833C10.6494 3.37113 10.9169 3.74078 11.1205 4.21997C11.4264 4.93756 11.5839 5.89625 11.5594 6.98723C11.5358 8.07815 11.332 9.30134 10.9305 10.5542C10.3196 12.4631 9.36377 14.0739 8.33803 15.1169C7.82614 15.6386 7.29821 16.017 6.7991 16.2268C6.54993 16.3319 6.30884 16.3952 6.07934 16.4177C5.84926 16.4401 5.63105 16.4218 5.42044 16.3613C5.20983 16.3009 5.01764 16.2014 4.83946 16.0618C4.52832 15.8183 4.26069 15.4493 4.05774 14.9699C3.75161 14.252 3.59378 13.2935 3.61827 12.2025C3.64217 11.1116 3.84628 9.88829 4.24771 8.63571C4.85832 6.72671 5.81434 5.11622 6.83982 4.07318C7.35155 3.55112 7.88011 3.17263 8.37847 2.96313C8.62771 2.85786 8.8688 2.79457 9.09849 2.77236C9.32866 2.74972 9.54684 2.76803 9.75748 2.8285C9.96813 2.88897 10.1603 2.98849 10.3384 3.12833Z" fill="#CCAF7E"/>
<path d="M8.21601 4.70128C7.815 4.87048 7.41403 5.16164 7.03087 5.5526L7.03104 5.55207C6.26554 6.3314 5.57441 7.50305 5.12926 8.88922L5.12825 8.89319L5.12801 8.89312C4.83645 9.80367 4.6872 10.6939 4.66981 11.4955C4.65241 12.2971 4.76585 13.0086 5.00233 13.5655L5.00202 13.5646C5.15966 13.9365 5.37199 14.2377 5.6404 14.4481C5.79256 14.568 5.96481 14.6575 6.15135 14.7108C6.30473 14.7548 6.46752 14.6713 6.51474 14.524C6.56197 14.3766 6.47562 14.2216 6.32224 14.1776C6.21023 14.1451 6.1101 14.0942 6.0105 14.0164C5.83786 13.8819 5.67117 13.6603 5.5415 13.3527L5.54119 13.3518C5.3445 12.8927 5.23393 12.2463 5.25135 11.503C5.2671 10.7592 5.40711 9.91631 5.68417 9.05278L5.68867 9.03873C6.10873 7.72895 6.76835 6.62614 7.45312 5.93225L7.45365 5.93153C7.79491 5.58258 8.14309 5.33766 8.44712 5.21028C8.59965 5.14601 8.74078 5.10978 8.86893 5.09738C9.02893 5.08188 9.14615 4.94552 9.13115 4.79251C9.11618 4.6395 8.97453 4.52835 8.81458 4.54383C8.61688 4.56305 8.41633 4.61633 8.21601 4.70128Z" fill="#CCAF7E"/>
</svg>
