<svg width="28" height="28" viewBox="0 0 28 28" fill="none" xmlns="http://www.w3.org/2000/svg">
<path d="M21.0001 26.5417H7.00006C5.53088 26.5398 4.12241 25.9554 3.08355 24.9165C2.04469 23.8777 1.46024 22.4692 1.45839 21V12.7424C1.45645 11.911 1.64244 11.09 2.00245 10.3407C2.36246 9.59142 2.88718 8.93317 3.53739 8.41519L11.2666 2.23185C12.0403 1.60689 13.0049 1.26599 13.9995 1.26599C14.9941 1.26599 15.9587 1.60689 16.7324 2.23185L24.4604 8.41519C25.1109 8.93294 25.636 9.59112 25.9962 10.3405C26.3564 11.0898 26.5425 11.9109 26.5406 12.7424V21C26.5387 22.469 25.9544 23.8773 24.9158 24.9161C23.8772 25.9549 22.469 26.5395 21.0001 26.5417ZM4.63172 9.78135C4.18658 10.1357 3.82733 10.586 3.58085 11.0988C3.33437 11.6116 3.20704 12.1734 3.20839 12.7424V21C3.20962 22.0053 3.6095 22.969 4.32031 23.6798C5.03112 24.3906 5.99482 24.7904 7.00006 24.7917H21.0001C22.0053 24.7904 22.969 24.3906 23.6798 23.6798C24.3906 22.969 24.7905 22.0053 24.7917 21V12.7424C24.7931 12.1734 24.6657 11.6116 24.4193 11.0988C24.1728 10.586 23.8135 10.1357 23.3684 9.78135L15.6404 3.59802C15.176 3.22328 14.5973 3.0189 14.0006 3.0189C13.4039 3.0189 12.8252 3.22328 12.3609 3.59802L4.63172 9.78135Z" fill="#F4F1EB"/>
<path d="M4.63172 9.78135C4.18658 10.1357 3.82733 10.586 3.58085 11.0988C3.33437 11.6116 3.20704 12.1734 3.20839 12.7424V21C3.20962 22.0053 3.6095 22.969 4.32031 23.6798C5.03112 24.3906 5.99482 24.7904 7.00006 24.7917H21.0001C22.0053 24.7904 22.969 24.3906 23.6798 23.6798C24.3906 22.969 24.7905 22.0053 24.7917 21V12.7424C24.7931 12.1734 24.6657 11.6116 24.4193 11.0988C24.1728 10.586 23.8135 10.1357 23.3684 9.78135L15.6404 3.59802C15.176 3.22328 14.5973 3.0189 14.0006 3.0189C13.4039 3.0189 12.8252 3.22328 12.3609 3.59802L4.63172 9.78135Z" fill="#F4F1EB"/>
<path d="M15 26.5419V19.3752C15 18.8229 14.5523 18.3752 14 18.3752C13.4477 18.3752 13 18.8229 13 19.3752V26.5419H15Z" fill="#CCAF7E"/>
</svg>
