<svg width="29" height="22" viewBox="0 0 29 22" fill="none" xmlns="http://www.w3.org/2000/svg">
<path d="M1.66663 6.17463C1.66663 4.58018 1.66663 3.78218 1.9824 3.17551C2.24797 2.66459 2.66459 2.24797 3.17551 1.9824C3.78218 1.66663 4.58018 1.66663 6.17463 1.66663H23.6031C25.1975 1.66663 25.9955 1.66663 26.6022 1.9824C27.1131 2.24797 27.5297 2.66459 27.7953 3.17551C28.1111 3.78218 28.1111 4.58018 28.1111 6.17463V15.8253C28.1111 17.4197 28.1111 18.2177 27.7953 18.8244C27.5297 19.3353 27.1131 19.752 26.6022 20.0175C25.9955 20.3333 25.1975 20.3333 23.6031 20.3333H6.17463C4.58018 20.3333 3.78218 20.3333 3.17551 20.0175C2.66459 19.752 2.24797 19.3353 1.9824 18.8244C1.66663 18.2177 1.66663 17.4197 1.66663 15.8253V6.17463Z" stroke="#F4F1EB" stroke-width="1.5"/>
<path d="M1.66663 7.88904H28.1111" stroke="#F4F1EB" stroke-width="1.5" stroke-linecap="round"/>
<path d="M6.33356 16.4446C6.76312 16.4446 7.11134 16.0964 7.11134 15.6668C7.11134 15.2373 6.76312 14.889 6.33356 14.889C5.90401 14.889 5.55579 15.2373 5.55579 15.6668C5.55579 16.0964 5.90401 16.4446 6.33356 16.4446Z" fill="#F4F1EB"/>
</svg>
