<svg width="18" height="18" viewBox="0 0 18 18" fill="none" xmlns="http://www.w3.org/2000/svg">
<path d="M5.25 15V13.5H4.5C4.2875 13.5 4.1095 13.428 3.966 13.284C3.8225 13.14 3.7505 12.962 3.75 12.75C3.75 12.5375 3.822 12.3595 3.966 12.216C4.11 12.0725 4.288 12.0005 4.5 12H5.25V3C5.25 2.7875 5.322 2.6095 5.466 2.466C5.61 2.3225 5.788 2.2505 6 2.25H12.75C12.9625 2.25 13.1407 2.322 13.2847 2.466C13.4288 2.61 13.5005 2.788 13.5 3C13.5 3.2125 13.428 3.39075 13.284 3.53475C13.14 3.67875 12.962 3.7505 12.75 3.75H6.75V8.25H12C12.2125 8.25 12.3907 8.322 12.5347 8.466C12.6788 8.61 12.7505 8.788 12.75 9C12.75 9.2125 12.678 9.39075 12.534 9.53475C12.39 9.67875 12.212 9.7505 12 9.75H6.75V12H9C9.2125 12 9.39075 12.072 9.53475 12.216C9.67875 12.36 9.7505 12.538 9.75 12.75C9.75 12.9625 9.678 13.1408 9.534 13.2848C9.39 13.4288 9.212 13.5005 9 13.5H6.75V15C6.75 15.2125 6.678 15.3908 6.534 15.5348C6.39 15.6788 6.212 15.7505 6 15.75C5.7875 15.75 5.6095 15.678 5.466 15.534C5.3225 15.39 5.2505 15.212 5.25 15Z" fill="#CCAF7E"/>
</svg>
